<?xml version="1.0" encoding="utf-8"?>
<!-- Generator: Adobe Illustrator 18.0.0, SVG Export Plug-In . SVG Version: 6.00 Build 0)  -->
<!DOCTYPE svg PUBLIC "-//W3C//DTD SVG 1.1//EN" "http://www.w3.org/Graphics/SVG/1.1/DTD/svg11.dtd">
<svg version="1.1" xmlns="http://www.w3.org/2000/svg" xmlns:xlink="http://www.w3.org/1999/xlink" x="0px" y="0px"
	 viewBox="0 0 446.7 276.4" enable-background="new 0 0 446.7 276.4" xml:space="preserve">
	 
	 	  <style>
 svg * {
          -webkit-transition: all 0.3s;
      }
      
 @media all and (min-width: 151px){
       #ro {
            -webkit-animation: rotate-animation 4s infinite;
            transform-origin: bottom;
        }
        @-webkit-keyframes rotate-animation {
            0%   { transform: rotate(0deg); }
            20%  { transform: rotate(5deg); }
            50% { transform: rotate(0deg); }
            75% { transform: rotate(-5deg); }
            100%   { transform: rotate(0deg); }
        }

      
      }



    </style>
	 
<g id="Calque_2">
	<g>
		<path d="M272.2,233h-82.1l41.1-72.2L272.2,233z M197.8,229h66.8l-33.4-58.7L197.8,229z"/>
	</g>
</g>
<g id="ro">
	<g>
		<path d="M30.9,52.9c2-0.4,5.2-0.7,8.5-0.7c4.7,0,7.7,0.8,9.9,2.6c1.9,1.4,3,3.5,3,6.4c0,3.5-2.3,6.5-6.1,7.9v0.1
			c3.4,0.9,7.4,3.7,7.4,9.1c0,3.1-1.2,5.5-3.1,7.2c-2.5,2.3-6.6,3.4-12.5,3.4c-3.2,0-5.7-0.2-7.2-0.4V52.9z M35.6,67.7h4.2
			c4.9,0,7.8-2.6,7.8-6.1c0-4.2-3.2-5.9-7.9-5.9c-2.1,0-3.4,0.2-4.1,0.3V67.7z M35.6,85c0.9,0.2,2.2,0.2,3.9,0.2
			c4.8,0,9.3-1.8,9.3-7c0-4.9-4.2-7-9.3-7h-3.9V85z"/>
		<path d="M74.2,88.6l-0.4-3.3h-0.2c-1.4,2-4.2,3.9-7.9,3.9c-5.2,0-7.9-3.7-7.9-7.4c0-6.3,5.6-9.7,15.6-9.6v-0.5c0-2.1-0.6-6-5.9-6
			c-2.4,0-4.9,0.8-6.8,1.9l-1.1-3.1c2.1-1.4,5.2-2.3,8.5-2.3c7.9,0,9.9,5.4,9.9,10.6v9.7c0,2.3,0.1,4.4,0.4,6.2H74.2z M73.5,75.3
			c-5.1-0.1-11,0.8-11,5.8c0,3.1,2,4.5,4.4,4.5c3.4,0,5.5-2.1,6.3-4.3c0.2-0.5,0.3-1,0.3-1.5V75.3z"/>
		<path d="M85.6,50.5h4.7v38h-4.7V50.5z"/>
		<path d="M112.6,88.6l-0.4-3.3h-0.2c-1.4,2-4.2,3.9-7.9,3.9c-5.2,0-7.9-3.7-7.9-7.4c0-6.3,5.6-9.7,15.6-9.6v-0.5c0-2.1-0.6-6-5.9-6
			c-2.4,0-4.9,0.8-6.8,1.9l-1.1-3.1c2.1-1.4,5.2-2.3,8.5-2.3c7.9,0,9.9,5.4,9.9,10.6v9.7c0,2.3,0.1,4.4,0.4,6.2H112.6z M111.9,75.3
			c-5.1-0.1-11,0.8-11,5.8c0,3.1,2,4.5,4.4,4.5c3.4,0,5.5-2.1,6.3-4.3c0.2-0.5,0.3-1,0.3-1.5V75.3z"/>
		<path d="M124.1,69.7c0-2.7-0.1-4.9-0.2-7h4.2l0.3,4.3h0.1c1.3-2.5,4.3-4.9,8.6-4.9c3.6,0,9.2,2.1,9.2,11v15.5h-4.7V73.6
			c0-4.2-1.6-7.7-6-7.7c-3.1,0-5.5,2.2-6.3,4.8c-0.2,0.6-0.3,1.4-0.3,2.2v15.6h-4.7V69.7z"/>
		<path d="M172.3,87.6c-1.2,0.6-4,1.5-7.4,1.5c-7.8,0-12.9-5.3-12.9-13.2c0-8,5.5-13.8,13.9-13.8c2.8,0,5.2,0.7,6.5,1.3l-1.1,3.6
			c-1.1-0.6-2.9-1.2-5.5-1.2c-5.9,0-9.2,4.4-9.2,9.8c0,6,3.9,9.7,9,9.7c2.7,0,4.4-0.7,5.8-1.3L172.3,87.6z"/>
		<path d="M180.1,76.5c0.1,6.4,4.2,9,8.9,9c3.4,0,5.4-0.6,7.2-1.3l0.8,3.4c-1.7,0.8-4.5,1.6-8.6,1.6c-8,0-12.7-5.2-12.7-13.1
			s4.6-14,12.2-14c8.5,0,10.7,7.4,10.7,12.2c0,1-0.1,1.7-0.2,2.2H180.1z M193.9,73.1c0.1-3-1.2-7.7-6.5-7.7c-4.8,0-6.9,4.4-7.2,7.7
			H193.9z"/>
	</g>
	<g>
		<path d="M240.4,55.2c2.4-0.5,5.7-0.7,8.9-0.7c5,0,8.2,0.9,10.4,2.9c1.8,1.6,2.8,4.1,2.8,6.9c0,4.8-3,7.9-6.8,9.2v0.2
			c2.8,1,4.4,3.5,5.3,7.3c1.2,5,2,8.5,2.8,9.9h-4.8c-0.6-1-1.4-4.1-2.4-8.6c-1.1-5-3-6.9-7.2-7h-4.4v15.6h-4.7V55.2z M245.1,71.7
			h4.8c5,0,8.1-2.7,8.1-6.9c0-4.7-3.4-6.7-8.3-6.7c-2.3,0-3.9,0.2-4.6,0.4V71.7z"/>
		<path d="M292.7,77.7c0,9.6-6.6,13.8-12.9,13.8c-7,0-12.4-5.1-12.4-13.3c0-8.7,5.7-13.8,12.9-13.8
			C287.7,64.3,292.7,69.7,292.7,77.7z M272.2,77.9c0,5.7,3.3,10,7.9,10c4.5,0,7.9-4.2,7.9-10.1c0-4.4-2.2-10-7.8-10
			C274.6,67.9,272.2,73,272.2,77.9z"/>
		<path d="M298.5,90.8c0.1-1.8,0.2-4.4,0.2-6.7V52.8h4.7v16.3h0.1c1.7-2.9,4.7-4.8,8.8-4.8c6.4,0,11,5.4,10.9,13.2
			c0,9.3-5.8,13.9-11.6,13.9c-3.8,0-6.8-1.4-8.7-4.9h-0.2l-0.2,4.3H298.5z M303.3,80.4c0,0.6,0.1,1.2,0.2,1.7
			c0.9,3.3,3.6,5.5,7.1,5.5c4.9,0,7.9-4,7.9-10c0-5.2-2.7-9.6-7.7-9.6c-3.2,0-6.2,2.2-7.2,5.8c-0.1,0.5-0.3,1.2-0.3,1.9V80.4z"/>
		<path d="M331.8,78.7c0.1,6.4,4.2,9,8.9,9c3.4,0,5.4-0.6,7.2-1.3l0.8,3.4c-1.7,0.7-4.5,1.6-8.6,1.6c-8,0-12.7-5.2-12.7-13.1
			c0-7.8,4.6-14,12.2-14c8.5,0,10.7,7.4,10.7,12.2c0,1-0.1,1.7-0.2,2.2H331.8z M345.6,75.4c0.1-3-1.2-7.7-6.5-7.7
			c-4.8,0-6.9,4.4-7.2,7.7H345.6z"/>
		<path d="M356,73c0-3.1-0.1-5.7-0.2-8.1h4.1l0.2,5.1h0.2c1.2-3.5,4-5.7,7.2-5.7c0.5,0,0.9,0.1,1.3,0.2v4.4c-0.5-0.1-1-0.2-1.6-0.2
			c-3.3,0-5.7,2.5-6.3,6.1c-0.1,0.6-0.2,1.4-0.2,2.2v13.8H356V73z"/>
		<path d="M376.7,64.9l5.1,14.6c0.9,2.4,1.6,4.5,2.1,6.6h0.2c0.6-2.1,1.3-4.3,2.2-6.6l5-14.6h4.9L386,90.8h-4.5l-9.9-25.9H376.7z"/>
		<path d="M414.8,90.8l-0.4-3.3h-0.2c-1.4,2-4.2,3.9-7.9,3.9c-5.2,0-7.9-3.7-7.9-7.4c0-6.3,5.6-9.7,15.6-9.6v-0.5c0-2.1-0.6-6-5.9-6
			c-2.4,0-4.9,0.8-6.8,1.9l-1.1-3.1c2.1-1.4,5.3-2.3,8.5-2.3c7.9,0,9.9,5.4,9.9,10.6v9.7c0,2.2,0.1,4.4,0.4,6.2H414.8z M414.1,77.6
			c-5.1-0.1-11,0.8-11,5.8c0,3.1,2,4.5,4.4,4.5c3.4,0,5.5-2.1,6.3-4.3c0.2-0.5,0.3-1,0.3-1.5V77.6z"/>
		<path d="M426.2,52.8h4.7v38h-4.7V52.8z"/>
	</g>
	<g>
		<path d="M231.2,205.5c-40.8,0-79.2-8.6-108.1-25C93.7,163.8,77.5,141,77.5,118h5.4c0,45,66.5,83,148.3,83
			c81.8,0,148.3-38,148.3-83h5.4c0,23-16.2,45.8-45.6,62.5C310.4,196.9,272,205.5,231.2,205.5z"/>
	</g>
	<g>
		<rect x="41" y="118" width="77" height="5"/>
	</g>
	<g>
		<rect x="340" y="118" width="77" height="5"/>
	</g>
</g>
</svg>
