<?xml version="1.0" encoding="utf-8"?>
<!-- Generator: Adobe Illustrator 18.0.0, SVG Export Plug-In . SVG Version: 6.00 Build 0)  -->
<!DOCTYPE svg PUBLIC "-//W3C//DTD SVG 1.1//EN" "http://www.w3.org/Graphics/SVG/1.1/DTD/svg11.dtd">
<svg version="1.1" id="Calque_1" xmlns="http://www.w3.org/2000/svg" xmlns:xlink="http://www.w3.org/1999/xlink" x="0px" y="0px"
	 viewBox="284.2 190.8 59.1 56.7" enable-background="new 284.2 190.8 59.1 56.7" xml:space="preserve">
<g id="Calque_1_1_" display="none">
	<g id="Pause_10_" display="inline">
		<g>
			<path fill="#3E3E3E" d="M715.6-30.7c0,1.1,0.8,1.9,1.9,1.9h14.7c1.1,0,1.9-0.8,1.9-1.9s-0.8-1.9-1.9-1.9h-14.7
				C716.4-32.6,715.6-31.8,715.6-30.7z M729.9-59.8c-1.1-0.2-1.9,0.4-2.1,1.5c-0.2,1.1,0.4,1.9,1.5,2.1
				c12.4,2.1,21.3,12.8,21.3,25.5s-9.1,23.4-21.3,25.5c-1.1,0.2-1.7,1.1-1.5,2.1c0.2,0.8,0.8,1.5,1.9,1.5c0,0,0.2,0,0.4,0
				c14.1-2.5,24.4-14.7,24.4-29.1C754.4-45,744-57.3,729.9-59.8z M720.2-5.2C707.8-7.3,699-18.1,699-30.7s9.1-23.4,21.3-25.5
				c1.1-0.2,1.7-1.1,1.5-2.1c-0.2-1.1-1.1-1.7-2.1-1.5c-14.1,2.5-24.4,14.7-24.4,29.1s10.3,26.5,24.4,29.1c0.2,0,0.2,0,0.4,0
				c0.8,0,1.7-0.6,1.9-1.5C721.9-4.2,721.3-5,720.2-5.2z"/>
		</g>
	</g>
</g>
<g id="Calque_2">
	<g id="Pause_8_">
		<g>
			<path fill="#3E3E3E" d="M322.6,220.1c0-1.1-0.8-1.9-1.9-1.9h-5.5v-5.5c0-1.1-0.8-1.9-1.9-1.9s-1.9,0.8-1.9,1.9v5.5H306
				c-1.1,0-1.9,0.8-1.9,1.9c0,1.1,0.8,1.9,1.9,1.9h5.5v5.5c0,1.1,0.8,1.9,1.9,1.9s1.9-0.8,1.9-1.9V222h5.5
				C321.8,221.8,322.6,220.9,322.6,220.1z M318.6,190.8c-1.1-0.2-1.9,0.4-2.1,1.5c-0.2,1.1,0.4,1.9,1.5,2.1
				c12.4,2.1,21.3,12.8,21.3,25.5c0,12.6-9.1,23.4-21.3,25.5c-1.1,0.2-1.7,1.1-1.5,2.1c0.2,0.8,0.8,1.5,1.9,1.5c0,0,0.2,0,0.4,0
				c14.1-2.5,24.4-14.7,24.4-29.1C343.1,205.6,332.7,193.4,318.6,190.8z M308.9,245.4c-12.4-2.1-21.3-12.8-21.3-25.5
				c0-12.6,9.1-23.4,21.3-25.5c1.1-0.2,1.7-1.1,1.5-2.1c-0.2-1.1-1.1-1.7-2.1-1.5c-14.1,2.5-24.4,14.7-24.4,29.1
				s10.3,26.5,24.4,29.1c0.2,0,0.2,0,0.4,0c0.8,0,1.7-0.6,1.9-1.5C310.6,246.6,310,245.6,308.9,245.4z"/>
		</g>
	</g>
</g>
</svg>
