<?xml version="1.0" encoding="utf-8"?>
<!-- Generator: Adobe Illustrator 18.0.0, SVG Export Plug-In . SVG Version: 6.00 Build 0)  -->
<!DOCTYPE svg PUBLIC "-//W3C//DTD SVG 1.1//EN" "http://www.w3.org/Graphics/SVG/1.1/DTD/svg11.dtd">
<svg version="1.1" id="Calque_1" xmlns="http://www.w3.org/2000/svg" xmlns:xlink="http://www.w3.org/1999/xlink" x="0px" y="0px"
	 viewBox="83.5 0 502 493" enable-background="new 83.5 0 502 493" xml:space="preserve">
<g id="Calque_1_1_" display="none">
	<g id="Pause_10_" display="inline">
		<g>
			<path fill="#3E3E3E" d="M4006.1-1684.3c0,9.3,6.8,16.1,16.1,16.1h124.4c9.3,0,16.1-6.8,16.1-16.1c0-9.3-6.8-16.1-16.1-16.1
				h-124.4C4012.9-1700.4,4006.1-1693.6,4006.1-1684.3z M4127.2-1930.7c-9.3-1.7-16.1,3.4-17.8,12.7c-1.7,9.3,3.4,16.1,12.7,17.8
				c105,17.8,180.3,108.4,180.3,215.9c0,107.5-77,198.1-180.3,215.9c-9.3,1.7-14.4,9.3-12.7,17.8c1.7,6.8,6.8,12.7,16.1,12.7
				c0,0,1.7,0,3.4,0c119.4-21.2,206.6-124.4,206.6-246.3C4334.6-1805.4,4246.5-1909.5,4127.2-1930.7z M4045-1468.5
				c-105-17.8-179.5-109.2-179.5-215.9c0-106.7,77-198.1,180.3-215.9c9.3-1.7,14.4-9.3,12.7-17.8c-1.7-9.3-9.3-14.4-17.8-12.7
				c-119.4,21.2-206.6,124.4-206.6,246.3c0,121.9,87.2,224.3,206.6,246.3c1.7,0,1.7,0,3.4,0c6.8,0,14.4-5.1,16.1-12.7
				C4059.4-1460,4054.4-1466.8,4045-1468.5z"/>
		</g>
	</g>
</g>
<g id="Calque_2">
	<g id="Pause_8_">
		<g>
			<path fill="#3E3E3E" d="M388.2,303.7c6.6-6.6,6.6-16.2,0-22.7l-32.9-32.9l32.9-32.9c6.6-6.6,6.6-16.2,0-22.7
				c-6.6-6.6-16.2-6.6-22.7,0l-32.9,32.9L300.2,193c-6.6-6.6-16.2-6.6-22.7,0c-6.6,6.6-6.6,16.2,0,22.7l32.9,32.9l-32.9,32.9
				c-6.6,6.6-6.6,16.2,0,22.7c6.6,6.6,16.2,6.6,22.7,0l32.9-32.9l32.9,32.9C373.2,309.1,383.4,308.5,388.2,303.7z M377.3,0.3
				c-9.3-1.7-16.1,3.4-17.8,12.7c-1.7,9.3,3.4,16.1,12.7,17.8c105,17.8,180.3,108.4,180.3,215.9c0,106.7-77,198.1-180.3,215.9
				c-9.3,1.7-14.4,9.3-12.7,17.8c1.7,6.8,6.8,12.7,16.1,12.7c0,0,1.7,0,3.4,0c119.4-21.2,206.6-124.4,206.6-246.3
				C584.7,125.6,496.6,22.3,377.3,0.3z M295.1,462.5c-105-17.8-180.3-108.4-180.3-215.9c0-106.7,77-198.1,180.3-215.9
				c9.3-1.7,14.4-9.3,12.7-17.8c-1.7-9.3-9.3-14.4-17.8-12.7C170.7,21.5,83.5,124.8,83.5,246.7S170.7,471,290.1,493
				c1.7,0,1.7,0,3.4,0c6.8,0,14.4-5.1,16.1-12.7C309.5,472.7,304.5,464.2,295.1,462.5z"/>
		</g>
	</g>
</g>
</svg>
