<?xml version="1.0" encoding="utf-8"?>
<!-- Generator: Adobe Illustrator 18.0.0, SVG Export Plug-In . SVG Version: 6.00 Build 0)  -->
<!DOCTYPE svg PUBLIC "-//W3C//DTD SVG 1.1//EN" "http://www.w3.org/Graphics/SVG/1.1/DTD/svg11.dtd">
<svg version="1.1" xmlns="http://www.w3.org/2000/svg" xmlns:xlink="http://www.w3.org/1999/xlink" x="0px" y="0px" width="714px"
	 height="245.5px" viewBox="150.4 300.5 714 245.5" enable-background="new 150.4 300.5 714 245.5" xml:space="preserve">
<g id="guette_x5F_droite">
	<rect x="265.7" y="421.9" fill="#754C24" width="8.4" height="40"/>
</g>
<g id="guette_x5F_gauche">
	<rect x="729.7" y="421.9" fill="#754C24" width="8.4" height="40"/>
</g>
<g id="base">
	
		<path fill="#FFFFFF" stroke="#FBB03B" stroke-width="2.8715" stroke-linecap="round" stroke-linejoin="round" stroke-miterlimit="10" d="
		M545.7,357.3C545.7,357.3,545.7,357.3,545.7,357.3c-1-1.5-2.2-2.9-3.4-4.3c-5.4-7.2-14.7-22-8.8-31.7l-14.7,8.2l-17.1-29.1
		l-17.1,29.1l-14.7-8.2c5.9,9.7-3.4,24.5-8.8,31.7c-1.3,1.4-2.4,2.8-3.4,4.3c0,0,0,0,0,0c-3,4.5-4.7,9.5-4.7,14.8
		c0,19,21.8,34.5,48.7,34.5s48.7-15.4,48.7-34.5C550.4,366.8,548.7,361.8,545.7,357.3z"/>
	<polygon fill="#754C24" points="501.7,406.6 447.1,479.7 501.7,479.7 556.2,479.7 	"/>
	<path fill="#BD7911" d="M764.7,479.7H500.6H236.5c-7.4,0-13.4,4.8-13.4,10.6v55.7h55.6v-25.9h222h0h222v25.9h55.6l0-55.7
		C778.2,484.5,772.2,479.7,764.7,479.7z"/>
	<g>
		<path fill="#FFFFFF" d="M383.5,500.6c-0.6,0.8-1.5,1.3-2.8,1.3s-2.2-0.4-2.8-1.2c-0.6-0.8-0.9-1.8-0.9-2.9c0-1.9,0.9-3.3,2.6-4.4
			c1.8-1.1,4.6-1.7,8.4-1.7c6.7,0,10.1,1.9,10.1,5.8c0,1.9-0.9,3.3-2.7,4.1c1.1,0.4,2,1,2.6,1.9c0.6,0.9,1,1.9,1,3.1
			c0,1.6-0.6,3-1.7,4c-1.2,1.1-2.8,1.6-5.1,1.6c-0.4,0-1.4,0-2.9-0.1c-1.5-0.1-2.7-0.1-3.6-0.1h-2.8v-2.1h2.8v-15.9
			c-2.3,0.2-4,0.6-4.9,1.2c-1,0.6-1.5,1.5-1.5,2.6c0,0.6,0.1,1,0.4,1.4s0.6,0.6,1.1,0.6c0.9,0,1.3-0.8,1.3-2.2h2.3
			C384.3,498.7,384,499.8,383.5,500.6z M389.5,502.9v-2.1h2.8c1,0,1.8-0.3,2.4-0.9c0.6-0.6,1-1.4,1-2.4c0-1.3-0.6-2.2-1.7-2.8
			c-1.2-0.6-3.1-0.9-5.9-0.9v16c2.4,0.1,3.9,0.2,4.6,0.2c1.2,0,2.2-0.3,2.9-1c0.7-0.6,1.1-1.5,1.1-2.7c0-1.1-0.4-2-1.1-2.6
			c-0.7-0.6-1.7-0.9-2.9-0.9H389.5z"/>
		<path fill="#FFFFFF" d="M405.2,512.2c-1.3,0-2.3-0.4-3.1-1.1s-1.1-1.8-1.1-3c0-1.3,0.5-2.3,1.5-3.2c1-0.9,2.4-1.3,4.4-1.3h3.1
			v-1.5c0-1.7-0.8-2.6-2.5-2.6c-1.4,0-2.7,0.2-3.9,0.5v1.9h-2v-3.4c0.9-0.4,1.9-0.6,3-0.9c1.2-0.2,2.1-0.3,2.9-0.3
			c1.5,0,2.7,0.4,3.6,1.3c0.9,0.9,1.3,2,1.3,3.5v8.1h2.3v1.2c-0.7,0.4-1.5,0.7-2.4,0.7s-1.5-0.2-1.9-0.5c-0.3-0.3-0.5-0.8-0.5-1.5
			C408.6,511.5,407,512.2,405.2,512.2z M405.5,510.1c1.6,0,3.1-0.9,4.5-2.8v-1.8h-3.1c-1.2,0-2,0.2-2.6,0.7c-0.6,0.5-0.8,1-0.8,1.7
			c0,0.7,0.2,1.2,0.5,1.6S404.8,510.1,405.5,510.1z"/>
		<path fill="#FFFFFF" d="M415.6,492.4v-1.9h4.6v19.5h2.5v1.9h-7.1v-1.9h2.2v-17.7H415.6z"/>
		<path fill="#FFFFFF" d="M428.5,512.2c-1.3,0-2.3-0.4-3.1-1.1s-1.1-1.8-1.1-3c0-1.3,0.5-2.3,1.5-3.2c1-0.9,2.4-1.3,4.4-1.3h3.1
			v-1.5c0-1.7-0.8-2.6-2.5-2.6c-1.4,0-2.7,0.2-3.9,0.5v1.9h-2v-3.4c0.9-0.4,1.9-0.6,3-0.9c1.2-0.2,2.1-0.3,2.9-0.3
			c1.5,0,2.7,0.4,3.6,1.3c0.9,0.9,1.3,2,1.3,3.5v8.1h2.3v1.2c-0.7,0.4-1.5,0.7-2.4,0.7s-1.5-0.2-1.9-0.5c-0.3-0.3-0.5-0.8-0.5-1.5
			C431.8,511.5,430.2,512.2,428.5,512.2z M428.7,510.1c1.6,0,3.1-0.9,4.5-2.8v-1.8h-3.1c-1.2,0-2,0.2-2.6,0.7
			c-0.6,0.5-0.8,1-0.8,1.7c0,0.7,0.2,1.2,0.5,1.6S428.1,510.1,428.7,510.1z"/>
		<path fill="#FFFFFF" d="M443.5,510.1h2.5v1.9h-7.1v-1.9h2.2v-10.5h-2.2v-1.9h4.1l0.3,1.5c0.6-0.4,1.2-0.6,1.6-0.8
			c0.4-0.2,1-0.4,1.7-0.6c0.7-0.2,1.5-0.3,2.2-0.3c1.6,0,2.8,0.5,3.4,1.5c0.6,1,0.9,2.3,0.9,4v7.3h2.3v1.2c-0.7,0.4-1.5,0.7-2.4,0.7
			s-1.5-0.2-1.9-0.5c-0.3-0.3-0.5-0.8-0.5-1.5v-7.2c0-1.1-0.1-1.9-0.4-2.5c-0.3-0.6-0.9-0.8-2-0.8c-1,0-2.6,0.6-4.8,1.7V510.1z"/>
		<path fill="#FFFFFF" d="M456.6,504.8c0-2.1,0.6-3.9,1.7-5.3c1.1-1.4,2.7-2.1,4.6-2.1c1.9,0,3.5,0.4,4.8,1.2v3.4h-2V500
			c-0.8-0.3-1.7-0.5-2.6-0.5c-1.3,0-2.3,0.5-3,1.5c-0.7,1-1.1,2.2-1.1,3.8c0,1.5,0.4,2.8,1.1,3.8c0.7,1,1.7,1.5,3,1.5
			c0.7,0,1.4-0.1,2-0.3c0.6-0.2,1-0.3,1.2-0.5c0.2-0.1,0.5-0.3,1-0.6l1.1,1.6c-1.3,1.3-3.1,1.9-5.2,1.9s-3.7-0.7-4.9-2.1
			C457.2,508.7,456.6,506.9,456.6,504.8z"/>
		<path fill="#FFFFFF" d="M482.4,503.8v1.5h-10.1c0.1,1.4,0.5,2.5,1.2,3.4s1.7,1.3,2.9,1.3c0.8,0,1.5-0.1,2.1-0.3
			c0.6-0.2,1.1-0.3,1.3-0.5c0.2-0.1,0.6-0.4,1-0.6l1.1,1.6c-1.4,1.3-3.2,1.9-5.4,1.9s-3.8-0.7-5-2.1c-1.1-1.4-1.7-3.2-1.7-5.3
			c0-2.1,0.6-3.9,1.7-5.3c1.1-1.4,2.7-2.1,4.7-2.1c2,0,3.5,0.6,4.5,1.8C481.8,500.4,482.4,501.9,482.4,503.8z M478.9,500.5
			c-0.6-0.7-1.4-1-2.5-1c-1.1,0-2,0.3-2.6,1c-0.7,0.7-1.1,1.6-1.4,2.7h7.5C479.8,502.2,479.5,501.2,478.9,500.5z"/>
		<path fill="#FFFFFF" d="M513.7,507.9h2.1c0,1.5-0.4,2.5-1.1,3.2s-1.6,1.1-2.7,1.1c-1.8,0-3.2-0.6-4.2-1.9c-1-1.2-2-3.4-2.9-6.4
			c-0.5-0.1-1.1-0.3-1.8-0.5v6.4h2.5v2.1h-7.7v-2.1h2.8v-15.9c-2.3,0.2-4,0.6-4.9,1.2c-1,0.6-1.5,1.5-1.5,2.6c0,0.6,0.1,1,0.4,1.4
			s0.6,0.6,1.1,0.6c0.9,0,1.3-0.8,1.3-2.2h2.3c0,1.2-0.3,2.3-0.9,3.1c-0.6,0.8-1.5,1.3-2.8,1.3s-2.2-0.4-2.8-1.2
			c-0.6-0.8-0.9-1.8-0.9-2.9c0-1.9,0.9-3.3,2.6-4.4c1.8-1.1,4.5-1.7,8.1-1.7c3.6,0,6.3,0.6,7.9,1.7c1.7,1.2,2.5,2.7,2.5,4.5
			s-0.5,3.3-1.6,4.3s-2.5,1.6-4.2,1.7c0.6,2.2,1.3,3.7,2,4.7c0.7,0.9,1.5,1.4,2.4,1.4c0.6,0,1-0.2,1.4-0.6
			C513.5,509.1,513.7,508.6,513.7,507.9z M503.1,493.8v7.4c0.9,0.4,2.1,0.6,3.7,0.6c1.1,0,2-0.4,2.8-1.1c0.8-0.7,1.2-1.6,1.2-2.7
			c0-1.4-0.6-2.4-1.8-3.1C507.8,494.2,505.9,493.8,503.1,493.8z"/>
		<path fill="#FFFFFF" d="M518.8,510.1c-1.2-1.4-1.8-3.2-1.8-5.3c0-2.1,0.6-3.9,1.8-5.3c1.2-1.4,2.9-2.1,5-2.1s3.8,0.7,5,2.1
			c1.2,1.4,1.8,3.2,1.8,5.3c0,2.1-0.6,3.9-1.8,5.3c-1.2,1.4-2.9,2.1-5,2.1S520,511.5,518.8,510.1z M520.6,501
			c-0.8,1-1.2,2.2-1.2,3.8c0,1.5,0.4,2.8,1.2,3.8c0.8,1,1.9,1.5,3.2,1.5s2.5-0.5,3.2-1.5c0.8-1,1.2-2.2,1.2-3.8
			c0-1.5-0.4-2.8-1.2-3.8c-0.8-1-1.9-1.5-3.2-1.5S521.4,500,520.6,501z"/>
		<path fill="#FFFFFF" d="M534.2,492.4H532v-1.9h4.6v8.7c1.1-1.2,2.6-1.9,4.3-1.9c1.8,0,3.1,0.7,4.1,2.1c1,1.4,1.4,3.2,1.4,5.3
			c0,2.2-0.6,3.9-1.8,5.3c-1.2,1.4-2.9,2.1-5.2,2.1c-1.7,0-3.4-0.3-5.2-0.9V492.4z M543.1,501.1c-0.6-1-1.5-1.5-2.6-1.5
			c-1.1,0-2.1,0.4-2.8,1.3s-1.1,2-1.1,3.2v5.5c1,0.3,1.8,0.5,2.6,0.5c1.6,0,2.8-0.5,3.6-1.5c0.8-1,1.2-2.2,1.2-3.7
			S543.7,502.1,543.1,501.1z"/>
		<path fill="#FFFFFF" d="M560.9,503.8v1.5h-10.1c0.1,1.4,0.5,2.5,1.2,3.4c0.7,0.9,1.7,1.3,2.9,1.3c0.8,0,1.5-0.1,2.1-0.3
			s1.1-0.3,1.3-0.5c0.2-0.1,0.6-0.4,1-0.6l1.1,1.6c-1.4,1.3-3.2,1.9-5.4,1.9s-3.8-0.7-5-2.1c-1.1-1.4-1.7-3.2-1.7-5.3
			c0-2.1,0.6-3.9,1.7-5.3c1.1-1.4,2.7-2.1,4.7-2.1c2,0,3.5,0.6,4.5,1.8C560.4,500.4,560.9,501.9,560.9,503.8z M557.4,500.5
			c-0.6-0.7-1.4-1-2.5-1s-2,0.3-2.6,1c-0.7,0.7-1.1,1.6-1.4,2.7h7.5C558.3,502.2,558,501.2,557.4,500.5z"/>
		<path fill="#FFFFFF" d="M566.9,510.1h2.5v1.9h-7.1v-1.9h2.2v-10.5h-2.2v-1.9h4.1l0.3,1.5c0.6-0.4,1.2-0.6,1.6-0.8
			c0.4-0.2,1-0.4,1.7-0.6c0.8-0.2,1.5-0.3,2.2-0.3l1.6,0.4l-0.7,2.3l-1.3-0.3c-1.6,0-3.2,0.4-4.9,1.2V510.1z"/>
		<path fill="#FFFFFF" d="M583,499.5v-1.9h6v1.9h-1.8l-4.5,12.4h-2.5l-4.5-12.4H574v-1.9h6v1.9h-1.8l3.3,9.7l3.3-9.7H583z"/>
		<path fill="#FFFFFF" d="M594.4,512.2c-1.3,0-2.3-0.4-3.1-1.1s-1.1-1.8-1.1-3c0-1.3,0.5-2.3,1.5-3.2c1-0.9,2.4-1.3,4.4-1.3h3.1
			v-1.5c0-1.7-0.8-2.6-2.5-2.6c-1.4,0-2.7,0.2-3.9,0.5v1.9h-2v-3.4c0.9-0.4,1.9-0.6,3-0.9c1.2-0.2,2.1-0.3,2.9-0.3
			c1.5,0,2.7,0.4,3.6,1.3c0.9,0.9,1.3,2,1.3,3.5v8.1h2.3v1.2c-0.7,0.4-1.5,0.7-2.4,0.7s-1.5-0.2-1.9-0.5c-0.3-0.3-0.5-0.8-0.5-1.5
			C597.7,511.5,596.1,512.2,594.4,512.2z M594.6,510.1c1.6,0,3.1-0.9,4.5-2.8v-1.8H596c-1.2,0-2,0.2-2.6,0.7c-0.6,0.5-0.8,1-0.8,1.7
			c0,0.7,0.2,1.2,0.5,1.6S594,510.1,594.6,510.1z"/>
		<path fill="#FFFFFF" d="M604.8,492.4v-1.9h4.6v19.5h2.5v1.9h-7.1v-1.9h2.2v-17.7H604.8z"/>
	</g>
	<path fill="#6D7729" d="M293.8,469.2h-6.2v-5.5c0-1.3-1.3-2.3-2.9-2.3h-29.5c-1.6,0-2.9,1-2.9,2.3v5.5H246c-2,0-3.6,1.3-3.6,2.9
		v4.8c0,1.6,1.6,2.9,3.6,2.9h47.8c2,0,3.6-1.3,3.6-2.9v-4.8C297.4,470.5,295.8,469.2,293.8,469.2z"/>
	<path fill="#6D7729" d="M710,469.2h6.2v-5.5c0-1.3,1.3-2.3,2.9-2.3h29.5c1.6,0,2.9,1,2.9,2.3v5.5h6.3c2,0,3.6,1.3,3.6,2.9v4.8
		c0,1.6-1.6,2.9-3.6,2.9H710c-2,0-3.6-1.3-3.6-2.9v-4.8C706.4,470.5,708,469.2,710,469.2z"/>
</g>
<g id="barre">
	<path fill="#BD7911" d="M761.9,392.9H507.6l-5.7-57.7l-5.7,57.7H241.4c-10.1,0-18.4,6.5-18.4,14.5l0,0c0,8,8.3,14.5,18.4,14.5
		h520.5c10.1,0,18.4-6.5,18.4-14.5l0,0C780.2,399.5,772,392.9,761.9,392.9z"/>
	<g>
		
			<path fill="none" stroke="#FBB03B" stroke-width="2.8715" stroke-linecap="round" stroke-linejoin="round" stroke-miterlimit="10" d="
			M308.6,411.8c0,0-4.5-16.3,29.1-14.3s50.4,16.3,79.8,18.1c29.4,1.8,55-11.8,55-11.8s27.3-12.8,58.9,0c0,0,25.6,13.6,55,11.8
			c29.4-1.8,46.2-16,79.8-18.1c33.6-2.1,29.1,14.3,29.1,14.3"/>
		<path fill="#FBB03B" d="M357.1,401.1c0,0-4.4-0.5-7.6,2.6c-3.2,3.2-3.4,8.3-3.4,8.3s5.3-0.3,8.5-3.5
			C357.7,405.4,357.1,401.1,357.1,401.1z"/>
		<path fill="#FBB03B" d="M381.7,407.9c0,0-4.4-0.5-7.6,2.6c-3.2,3.2-3.4,8.3-3.4,8.3s5.3-0.3,8.5-3.5
			C382.3,412.2,381.7,407.9,381.7,407.9z"/>
		<path fill="#FBB03B" d="M333.3,398.5c0,0-4.4-0.5-7.6,2.6c-3.2,3.2-3.4,8.3-3.4,8.3s5.3-0.3,8.5-3.5
			C333.9,402.8,333.3,398.5,333.3,398.5z"/>
		<path fill="#FBB03B" d="M414.9,401.2c0,0,4.4,0.8,6.5,4.7c2.1,3.9,0.8,8.9,0.8,8.9s-5-1.8-7.1-5.7
			C413,405.1,414.9,401.2,414.9,401.2z"/>
		<path fill="#FBB03B" d="M391.5,398.4c0,0,4.4,0.8,6.5,4.7s0.8,8.9,0.8,8.9s-5-1.8-7.1-5.7C389.6,402.4,391.5,398.4,391.5,398.4z"
			/>
		<path fill="#FBB03B" d="M437.5,399.7c0,0,4.4,0.8,6.5,4.7c2.1,3.9,0.8,8.9,0.8,8.9s-5-1.8-7.1-5.7
			C435.6,403.7,437.5,399.7,437.5,399.7z"/>
		<path fill="#FBB03B" d="M646.8,401.1c0,0,4.4-0.5,7.6,2.6s3.4,8.3,3.4,8.3s-5.3-0.3-8.5-3.5C646.2,405.4,646.8,401.1,646.8,401.1z
			"/>
		<path fill="#FBB03B" d="M622.2,407.9c0,0,4.4-0.5,7.6,2.6c3.2,3.2,3.4,8.3,3.4,8.3s-5.3-0.3-8.5-3.5S622.2,407.9,622.2,407.9z"/>
		<path fill="#FBB03B" d="M670.5,398.5c0,0,4.4-0.5,7.6,2.6c3.2,3.2,3.4,8.3,3.4,8.3s-5.3-0.3-8.5-3.5
			C669.9,402.8,670.5,398.5,670.5,398.5z"/>
		<path fill="#FBB03B" d="M588.9,401.2c0,0-4.4,0.8-6.5,4.7c-2.1,3.9-0.8,8.9-0.8,8.9s5-1.8,7.1-5.7
			C590.8,405.1,588.9,401.2,588.9,401.2z"/>
		<path fill="#FBB03B" d="M612.4,398.4c0,0-4.4,0.8-6.5,4.7c-2.1,3.9-0.8,8.9-0.8,8.9s5-1.8,7.1-5.7
			C614.2,402.4,612.4,398.4,612.4,398.4z"/>
		<path fill="#FBB03B" d="M566.4,399.7c0,0-4.4,0.8-6.5,4.7c-2.1,3.9-0.8,8.9-0.8,8.9s5-1.8,7.1-5.7S566.4,399.7,566.4,399.7z"/>
	</g>
	<path fill="#6D7729" d="M481.1,379.8c-3-6.5-11.3-8.6-11.3-8.6s-4.6,5.8-1.6,12.3c3,6.5,12.1,10.4,12.1,10.4
		S484.1,386.4,481.1,379.8z"/>
	<path fill="#6D7729" d="M464,388.5c-8.8,0-14.1,5.4-14.1,5.4s5.3,5.4,14.1,5.4c8.8,0,16.5-5.4,16.5-5.4S472.8,388.5,464,388.5z"/>
	<path fill="#6D7729" d="M523.1,379.6c3-6.5,11.3-8.6,11.3-8.6s4.6,5.8,1.6,12.3c-3,6.5-12.1,10.4-12.1,10.4S520,386.2,523.1,379.6z
		"/>
	<path fill="#6D7729" d="M540.1,388.3c8.8,0,14.1,5.4,14.1,5.4s-5.3,5.4-14.1,5.4c-8.8,0-16.5-5.4-16.5-5.4S531.3,388.3,540.1,388.3
		z"/>
	<ellipse fill="#6D7729" cx="501.7" cy="405.5" rx="26.9" ry="26.7"/>
	<ellipse fill="#BD7911" cx="501.7" cy="405.5" rx="23.5" ry="23.3"/>
	<ellipse fill="#FBB03B" cx="501.7" cy="405.5" rx="19.2" ry="19.1"/>
	<ellipse fill="#BD7911" cx="501.7" cy="405.5" rx="15.4" ry="15.3"/>
	<ellipse fill="#FBB03B" cx="501.7" cy="405.5" rx="9.1" ry="9"/>
</g>
<g id="plateau_x5F_gauche">
	<g>
		<path fill="#959333" d="M150.4,370.8c0,12.2,35.9,22.1,46.4,22.1h52.4v24.7c0,2.4,2.8,4.3,6.2,4.3h28.1c3.4,0,6.2-1.9,6.2-4.3
			v-24.7H352c10.5,0,46.4-9.9,46.4-22.1H150.4z"/>
		<path fill="#6D7729" d="M374.7,371c-7.9,9-40.2,15.3-40.2,15.3s-107.7,1.9-137.6,0.1c-22-1.3-33.3-10.4-37.7-15.4h-8.7
			c0,12,35.9,22,46.4,22H249v24.6c0,2.4,3,4.4,6.4,4.4h28.1c3.4,0,7.4-2,7.4-4.4V393h61c10.5,0,46.4-10,46.4-22H374.7z"/>
	</g>
</g>
<g id="plateau_x5F_droite">
	<g>
		<path fill="#959333" d="M616.4,370.8c0,12.2,35.9,22.1,46.4,22.1h52.4v24.7c0,2.4,2.8,4.3,6.2,4.3h28.1c3.4,0,6.2-1.9,6.2-4.3
			v-24.7H818c10.5,0,46.4-9.9,46.4-22.1H616.4z"/>
		<path fill="#6D7729" d="M840.7,371c-7.9,9-40.2,15.3-40.2,15.3s-107.7,1.9-137.6,0.1c-22-1.3-33.3-10.4-37.7-15.4h-8.7
			c0,12,35.9,22,46.4,22H715v24.6c0,2.4,3,4.4,6.4,4.4h28.1c3.4,0,7.4-2,7.4-4.4V393h61c10.5,0,46.4-10,46.4-22H840.7z"/>
	</g>
</g>
</svg>
