<?xml version="1.0" encoding="utf-8"?>
<!-- Generator: Adobe Illustrator 18.0.0, SVG Export Plug-In . SVG Version: 6.00 Build 0)  -->
<!DOCTYPE svg PUBLIC "-//W3C//DTD SVG 1.1//EN" "http://www.w3.org/Graphics/SVG/1.1/DTD/svg11.dtd">
<svg version="1.1" id="Calque_1" xmlns="http://www.w3.org/2000/svg" xmlns:xlink="http://www.w3.org/1999/xlink" x="0px" y="0px"
	 viewBox="0 0 164.3 164.3" enable-background="new 0 0 164.3 164.3" xml:space="preserve">
<g id="Pencil">
	<g>
		<path fill="#3E3E3E" d="M155.4,8.8C149.7,3.1,142.2,0,134.1,0c-8.1,0-15.6,3.1-21.3,8.8L22,99c-0.5,0.5-0.9,1.2-1.2,1.9L0.3,157.4
			c-0.7,1.8-0.2,3.9,1.1,5.3c1,1,2.3,1.6,3.7,1.6c0.5,0,1-0.1,1.5-0.2l51.1-15.7c0.8-0.2,1.5-0.7,2.1-1.3l95.6-95.6
			c5.7-5.7,8.8-13.3,8.8-21.3C164.3,22.1,161.1,14.5,155.4,8.8z M51.8,139.5l-19.1,5.9c-1.1-3.3-2.9-6.2-5.2-8.5
			c-2.1-2.1-4.4-3.6-7-4.9l8.7-24.1h11.8v10.3c0,2.8,2.3,5.1,5.1,5.1h9.1L51.8,139.5z M127.4,65.1l-62.5,62.6l1.8-8.5
			c0.3-1.5-0.1-3.1-1-4.3c-1-1.2-2.4-1.9-4-1.9H51.3v-10.3c0-2.8-2.3-5.1-5.1-5.1h-8.1l61.1-60.7l0.1,0.1c3.8-3.8,8.8-5.8,14.1-5.8
			c5.3,0,10.3,2.1,14.1,5.8c3.8,3.8,5.8,8.8,5.8,14.1S131.1,61.3,127.4,65.1z M148.2,44.3l-4.8,4.8c-0.5-7.3-3.5-14.2-8.7-19.4
			c-5.2-5.2-12.1-8.3-19.4-8.7l4.8-4.8l0,0c3.8-3.8,8.8-5.8,14.1-5.8c5.3,0,10.3,2.1,14.1,5.8c3.8,3.8,5.8,8.8,5.8,14.1
			C154,35.5,151.9,40.5,148.2,44.3z M114.4,42.6L63.1,93.9c-2,2-2,5.3,0,7.3c1,1,2.3,1.5,3.6,1.5c1.3,0,2.6-0.5,3.6-1.5l51.3-51.3
			c2-2,2-5.3,0-7.3C119.7,40.6,116.5,40.6,114.4,42.6z"/>
	</g>
</g>
</svg>
