<?xml version="1.0" encoding="utf-8"?>
<!-- Generator: Adobe Illustrator 18.0.0, SVG Export Plug-In . SVG Version: 6.00 Build 0)  -->
<!DOCTYPE svg PUBLIC "-//W3C//DTD SVG 1.1//EN" "http://www.w3.org/Graphics/SVG/1.1/DTD/svg11.dtd">
<svg version="1.1" id="Layer_1" xmlns="http://www.w3.org/2000/svg" xmlns:xlink="http://www.w3.org/1999/xlink" x="0px" y="0px"
	 width="33.4px" height="56.2px" viewBox="0 0 33.4 56.2" enable-background="new 0 0 33.4 56.2" xml:space="preserve">
<g>
	<path fill="#E6A123" d="M30.5,53.3H2.9C1.3,53.3,0,52,0,50.4V16.6c0-1.6,1.3-2.9,2.9-2.9h27.6c1.6,0,2.9,1.3,2.9,2.9v33.8
		C33.4,52,32.1,53.3,30.5,53.3z"/>
	<ellipse fill="#E6A123" cx="16.7" cy="50.9" rx="16.7" ry="5.3"/>
	<path fill="#F8C30F" d="M31.8,13.9c-1.3,4.5-15.1,4.9-15.1,4.9S2.8,18.4,1.6,13.9c0,0-1.5,0.8-1.3,2.6s4.1,5.2,16.4,5.2
		s16.3-3.5,16.4-5.2C33.3,14.7,31.8,13.9,31.8,13.9z"/>
	<ellipse fill="#F09037" cx="16.7" cy="15.5" rx="15.9" ry="5"/>
	<ellipse fill="#E6A123" cx="16.7" cy="13.6" rx="10.1" ry="3.2"/>
	<path fill="#E6A123" d="M26.8,4.3H16.7H6.6c0,0,2.9,5.2,0,9.1h10.1h10.1C23.9,9.4,26.8,4.3,26.8,4.3z"/>
	<path fill="#F8C30F" d="M28.1,2.8c-1,4.4-11.4,4.8-11.4,4.8S6.2,7.3,5.2,2.8c0,0-1.1,0.8-1,2.5s3.1,5.1,12.4,5.1s12.4-3.3,12.5-5
		C29.2,3.6,28.1,2.8,28.1,2.8z"/>
	<ellipse fill="#F09037" cx="16.7" cy="3.8" rx="12" ry="3.8"/>
	<g>
		<path fill="#754C24" d="M7.5,36.1h2.1v2H3.1v-2h2.1v-4.8l-1.9,0.4L3,30.1l4.5-1.6V36.1z"/>
		<path fill="#754C24" d="M12.1,36.9c-0.8-0.9-1.2-2.1-1.2-3.5s0.4-2.6,1.2-3.5s2-1.4,3.4-1.4c1.5,0,2.6,0.5,3.4,1.4
			s1.2,2.1,1.2,3.5s-0.4,2.6-1.2,3.5c-0.8,0.9-2,1.4-3.4,1.4C14,38.3,12.9,37.9,12.1,36.9z M13.8,31.4c-0.4,0.5-0.6,1.2-0.6,2.1
			c0,0.8,0.2,1.5,0.6,2.1c0.4,0.5,1,0.8,1.7,0.8c0.7,0,1.3-0.3,1.7-0.8s0.6-1.2,0.6-2.1c0-0.8-0.2-1.5-0.6-2.1
			c-0.4-0.5-1-0.8-1.7-0.8C14.8,30.6,14.2,30.8,13.8,31.4z"/>
		<path fill="#754C24" d="M22.3,34.7c-0.6-0.5-0.9-1.2-0.9-2.1c0-0.9,0.3-1.6,1-2.2c0.6-0.6,1.5-0.9,2.7-0.9c0.7,0,1.3,0.1,1.8,0.4
			h2.8v2h-1.1c0.1,0.3,0.1,0.5,0.1,0.7c0,0.9-0.3,1.6-1,2.2c-0.6,0.6-1.5,0.9-2.7,0.9c-0.4,0-0.8,0-1.2-0.1c-0.1,0-0.2,0.1-0.2,0.1
			c-0.1,0.1-0.1,0.2-0.1,0.3s0,0.2,0.1,0.2c0.1,0.1,0.4,0.2,0.7,0.2l2.5,0.4c0.8,0.1,1.4,0.4,1.8,0.8c0.4,0.4,0.7,1,0.7,1.8
			s-0.4,1.4-1.2,1.9c-0.8,0.5-1.9,0.8-3.1,0.8s-2.2-0.2-2.8-0.7c-0.6-0.5-0.9-1-0.9-1.8c0-0.4,0.1-0.7,0.2-1
			c0.2-0.3,0.4-0.5,0.7-0.7c-0.6-0.2-0.9-0.7-0.9-1.5S21.6,35,22.3,34.7z M23.4,39.4c0,0.3,0.5,0.5,1.5,0.5c0.7,0,1.2-0.1,1.6-0.2
			c0.4-0.1,0.6-0.3,0.6-0.6s-0.3-0.5-0.8-0.5l-2.1-0.2c-0.2,0-0.4,0.2-0.6,0.4C23.5,38.9,23.4,39.2,23.4,39.4z M24,31.8
			c-0.2,0.2-0.4,0.4-0.4,0.7s0.1,0.5,0.4,0.7s0.6,0.3,1.1,0.3s0.8-0.1,1.1-0.3c0.2-0.2,0.4-0.4,0.4-0.7s-0.1-0.5-0.4-0.7
			c-0.2-0.2-0.6-0.3-1.1-0.3S24.2,31.7,24,31.8z"/>
	</g>
</g>
</svg>
