<?xml version="1.0" encoding="utf-8"?>
<!-- Generator: Adobe Illustrator 18.0.0, SVG Export Plug-In . SVG Version: 6.00 Build 0)  -->
<!DOCTYPE svg PUBLIC "-//W3C//DTD SVG 1.1//EN" "http://www.w3.org/Graphics/SVG/1.1/DTD/svg11.dtd">
<svg version="1.1" id="Layer_1" xmlns="http://www.w3.org/2000/svg" xmlns:xlink="http://www.w3.org/1999/xlink" x="0px" y="0px"
	 width="29.7px" height="50px" viewBox="0 0 29.7 50" enable-background="new 0 0 29.7 50" xml:space="preserve">
<g>
	<path fill="#E6A123" d="M27.2,47.4H2.6c-1.4,0-2.6-1.2-2.6-2.6v-30c0-1.4,1.2-2.6,2.6-2.6h24.6c1.4,0,2.6,1.2,2.6,2.6v30.1
		C29.7,46.3,28.6,47.4,27.2,47.4z"/>
	<ellipse fill="#E6A123" cx="14.9" cy="45.3" rx="14.9" ry="4.7"/>
	<path fill="#F8C30F" d="M28.3,12.4c-1.2,4-13.5,4.4-13.5,4.4S2.5,16.4,1.4,12.4c0,0-1.3,0.7-1.2,2.3s3.6,4.7,14.6,4.7
		s14.5-3.1,14.6-4.7C29.6,13.1,28.3,12.4,28.3,12.4z"/>
	<ellipse fill="#F09037" cx="14.9" cy="13.8" rx="14.1" ry="4.5"/>
	<ellipse fill="#E6A123" cx="14.9" cy="12.1" rx="9" ry="2.9"/>
	<path fill="#E6A123" d="M23.9,3.8h-9h-9c0,0,2.6,4.6,0,8.1h9h9C21.3,8.4,23.9,3.8,23.9,3.8z"/>
	<path fill="#F8C30F" d="M25.1,2.5c-0.9,3.9-10.2,4.3-10.2,4.3S5.5,6.5,4.7,2.5c0,0-1,0.7-0.9,2.2s2.7,4.6,11.1,4.6s11-3,11.1-4.6
		S25.1,2.5,25.1,2.5z"/>
	<ellipse fill="#F09037" cx="14.9" cy="3.4" rx="10.7" ry="3.4"/>
	<g>
		<path fill="#754C24" d="M14,25v3.5h-2.1v-1.4H9.1L8.7,30c0.4-0.1,0.8-0.2,1.3-0.2c1.3,0,2.3,0.3,3.1,1s1.2,1.7,1.2,3.1
			c0,1.6-0.5,2.7-1.5,3.5c-0.9,0.7-2.1,1.1-3.6,1.1s-2.7-0.2-3.8-0.7l0.9-2c0.4,0.2,0.8,0.3,1.4,0.4c0.6,0.1,1.1,0.2,1.5,0.2
			c0.8,0,1.4-0.2,2-0.6c0.5-0.4,0.8-0.9,0.8-1.7s-0.2-1.3-0.6-1.6S10.3,32,9.7,32s-1.2,0.2-1.8,0.5l-1.8-0.4L7.2,25H14z"/>
		<path fill="#754C24" d="M17,31.5c-0.6-0.6-0.9-1.3-0.9-2.3c0-0.9,0.3-1.7,1-2.3c0.7-0.6,1.7-0.9,2.9-0.9c0.8,0,1.4,0.1,2,0.4h3
			v2.1h-1.2c0.1,0.3,0.1,0.5,0.1,0.8c0,1-0.3,1.7-1,2.4c-0.7,0.6-1.7,0.9-2.9,0.9c-0.5,0-0.9,0-1.3-0.1c-0.1,0-0.2,0.1-0.3,0.1
			c-0.1,0.1-0.1,0.2-0.1,0.3s0,0.2,0.1,0.2c0.1,0.1,0.4,0.2,0.8,0.2l2.7,0.4c0.8,0.1,1.5,0.4,2,0.9s0.7,1.1,0.7,2s-0.4,1.5-1.3,2.1
			c-0.9,0.5-2,0.8-3.4,0.8s-2.4-0.2-3.1-0.8s-1-1.1-1-1.9c0-0.4,0.1-0.8,0.3-1.1c0.2-0.3,0.4-0.6,0.8-0.7c-0.7-0.3-1-0.8-1-1.6
			S16.2,31.9,17,31.5z M18.2,36.6c0,0.4,0.5,0.6,1.6,0.6c0.7,0,1.3-0.1,1.8-0.2s0.7-0.3,0.7-0.6s-0.3-0.5-0.8-0.6l-2.2-0.3
			c-0.3,0-0.5,0.2-0.7,0.4C18.3,36.1,18.2,36.4,18.2,36.6z M18.8,28.4c-0.3,0.2-0.4,0.5-0.4,0.8s0.1,0.6,0.4,0.8
			c0.3,0.2,0.7,0.3,1.2,0.3s0.9-0.1,1.2-0.3c0.3-0.2,0.4-0.5,0.4-0.8s-0.1-0.6-0.4-0.8c-0.3-0.2-0.7-0.3-1.2-0.3
			S19.1,28.2,18.8,28.4z"/>
	</g>
</g>
</svg>
