<?xml version="1.0" encoding="utf-8"?>
<!-- Generator: Adobe Illustrator 18.0.0, SVG Export Plug-In . SVG Version: 6.00 Build 0)  -->
<!DOCTYPE svg PUBLIC "-//W3C//DTD SVG 1.1//EN" "http://www.w3.org/Graphics/SVG/1.1/DTD/svg11.dtd">
<svg version="1.1" id="Layer_1" xmlns="http://www.w3.org/2000/svg" xmlns:xlink="http://www.w3.org/1999/xlink" x="0px" y="0px"
	 width="78.3px" height="131.7px" viewBox="0 0 78.3 131.7" enable-background="new 0 0 78.3 131.7" xml:space="preserve">
<g>
	<path fill="#E6A123" d="M71.6,124.6H7.2c-3.7,0-6.8-3-6.8-6.8V39.1c0-3.7,3-6.8,6.8-6.8h64.4c3.7,0,6.8,3,6.8,6.8v78.9
		C78.4,121.6,75.3,124.6,71.6,124.6z"/>
	<ellipse fill="#E6A123" cx="39.4" cy="118.9" rx="38.9" ry="12.4"/>
	<path fill="#F8C30F" d="M74.7,32.8c-3,10.6-35.3,11.6-35.3,11.6s-32.3-1-35.3-11.6c0,0-3.3,1.9-3,6s9.5,12.3,38.3,12.3
		s38-8.1,38.3-12.3C78.2,34.7,74.7,32.8,74.7,32.8z"/>
	<ellipse fill="#F09037" cx="39.4" cy="36.6" rx="37" ry="11.8"/>
	<ellipse fill="#E6A123" cx="39.4" cy="32.2" rx="23.6" ry="7.5"/>
	<path fill="#E6A123" d="M62.9,10.3H39.4H15.9c0,0,6.8,12-0.1,21.2h23.6H63C56.1,22.5,62.9,10.3,62.9,10.3z"/>
	<path fill="#F8C30F" d="M66.1,7c-2.2,10.4-26.6,11.3-26.6,11.3S15,17.3,12.8,7c0,0-2.6,1.9-2.2,5.9s7.1,11.9,29,11.9
		s28.6-7.9,29-11.9C68.7,8.9,66.1,7,66.1,7z"/>
	<ellipse fill="#F09037" cx="39.4" cy="9.3" rx="28" ry="8.9"/>
	<g>
		<path fill="#754C24" d="M18.2,90.2v-2.7c1.1-0.6,2.1-1.1,3.2-1.8c1.1-0.7,1.8-1.2,2.3-1.6c0.4-0.3,0.9-0.8,1.3-1.2
			c0.9-0.9,1.4-1.8,1.4-2.8c0-1.1-1-1.7-3.1-1.7c-0.8,0-1.6,0.1-2.2,0.4v2.2h-3v-4.8c1.3-0.8,3.1-1.1,5.2-1.1c4.3,0,6.6,1.6,6.6,4.8
			c0,1.2-0.6,2.5-1.6,3.8c-1,1.2-2.5,2.5-4.1,3.6v0.1l3.1-0.3v-0.9h3l-0.2,4h-12V90.2z"/>
		<path fill="#754C24" d="M31.9,73.3v-2.9h5.5v11.6l0.9-0.3l1.8-1.8h-0.9v-2.9h6.9v2.9h-1.4l-3.3,3.3l3.5,4.2h2v2.3
			c-0.3,0.2-0.8,0.3-1,0.4c-0.3,0.1-0.8,0.1-1.4,0.1c-0.7,0-1.2-0.1-1.7-0.3c-0.4-0.2-0.8-0.6-1.2-1.1l-3.1-4l-0.9,0.3v2.1h1.8v2.9
			h-7.2v-2.9h2.1v-14H31.9z"/>
		<path fill="#754C24" d="M49.3,84.7C48.4,84,48,82.8,48,81.4c0-1.3,0.6-2.5,1.6-3.5c1-0.9,2.5-1.3,4.2-1.3c1.1,0,2.1,0.2,2.9,0.6
			H61v3.1h-1.8c0.1,0.4,0.2,0.8,0.2,1.1c0,1.3-0.6,2.6-1.6,3.5s-2.5,1.3-4.2,1.3c-0.7,0-1.3-0.1-1.9-0.2c-0.1,0-0.2,0.1-0.3,0.2
			c-0.1,0.1-0.2,0.2-0.2,0.4c0,0.1,0.1,0.2,0.2,0.3c0.2,0.1,0.6,0.2,1.1,0.3l3.9,0.6c1.2,0.2,2.1,0.7,2.9,1.3
			c0.7,0.7,1.1,1.7,1.1,2.8c0,1.1-0.7,2.2-1.9,3c-1.3,0.8-2.9,1.2-4.9,1.2c-2,0-3.5-0.3-4.5-1.1c-1-0.8-1.4-1.7-1.4-2.8
			c0-0.6,0.1-1.1,0.3-1.6s0.7-0.8,1.1-1c-1-0.3-1.4-1.1-1.4-2.3C47.8,86.2,48.3,85.3,49.3,84.7z M51.1,92.2c0,0.6,0.8,0.8,2.2,0.8
			c1,0,1.9-0.1,2.6-0.3c0.7-0.2,1-0.4,1-0.9S56.4,91,55.7,91l-3.2-0.3c-0.3,0.1-0.7,0.2-1,0.6C51.2,91.5,51.1,91.9,51.1,92.2z
			 M52,80.4c-0.3,0.3-0.6,0.7-0.6,1.1s0.2,0.9,0.6,1.1c0.3,0.3,0.9,0.4,1.7,0.4s1.2-0.1,1.7-0.4c0.3-0.3,0.6-0.7,0.6-1.1
			s-0.2-0.9-0.6-1.1c-0.3-0.3-0.9-0.4-1.7-0.4C53,79.9,52.4,80.1,52,80.4z"/>
	</g>
</g>
</svg>
