<?xml version="1.0" encoding="utf-8"?>
<!-- Generator: Adobe Illustrator 18.0.0, SVG Export Plug-In . SVG Version: 6.00 Build 0)  -->
<!DOCTYPE svg PUBLIC "-//W3C//DTD SVG 1.1//EN" "http://www.w3.org/Graphics/SVG/1.1/DTD/svg11.dtd">
<svg version="1.1" id="Layer_1" xmlns="http://www.w3.org/2000/svg" xmlns:xlink="http://www.w3.org/1999/xlink" x="0px" y="0px"
	 width="19.3px" height="32.5px" viewBox="0 0 19.3 32.5" enable-background="new 0 0 19.3 32.5" xml:space="preserve">
<g>
	<path fill="#E6A123" d="M17.7,30.9h-16c-0.9,0-1.7-0.8-1.7-1.7V9.6c0-0.9,0.8-1.7,1.7-1.7h16c0.9,0,1.7,0.8,1.7,1.7v19.6
		C19.3,30.1,18.6,30.9,17.7,30.9z"/>
	<ellipse fill="#E6A123" cx="9.7" cy="29.5" rx="9.7" ry="3.1"/>
	<path fill="#F8C30F" d="M18.4,8.1C17.6,10.7,9.6,11,9.6,11s-8-0.2-8.8-2.9c0,0-0.8,0.5-0.8,1.5s2.4,3,9.5,3s9.4-2,9.5-3
		S18.4,8.1,18.4,8.1z"/>
	<ellipse fill="#F09037" cx="9.7" cy="9" rx="9.2" ry="2.9"/>
	<ellipse fill="#E6A123" cx="9.7" cy="7.9" rx="5.9" ry="1.9"/>
	<path fill="#E6A123" d="M15.5,2.5H9.7H3.8c0,0,1.7,3,0,5.3h5.9h5.9C13.8,5.5,15.5,2.5,15.5,2.5z"/>
	<path fill="#F8C30F" d="M16.3,1.6c-0.6,2.6-6.6,2.8-6.6,2.8S3.6,4.2,3,1.6c0,0-0.6,0.5-0.6,1.5c0.1,1,1.8,3,7.2,3s7.1-2,7.2-3
		S16.3,1.6,16.3,1.6z"/>
	<ellipse fill="#F09037" cx="9.7" cy="2.2" rx="6.9" ry="2.2"/>
	<g>
		<path fill="#754C24" d="M6.4,22.8h1.9v1.8H2.6v-1.8h1.8v-4.2l-1.6,0.3l-0.4-1.4l3.9-1.4v6.7H6.4z"/>
		<path fill="#754C24" d="M10.5,21.5C10,21,9.7,20.4,9.7,19.7c0-0.8,0.3-1.4,0.8-1.9c0.6-0.5,1.3-0.8,2.3-0.8c0.6,0,1.2,0.1,1.6,0.3
			H17V19h-1c0.1,0.2,0.1,0.4,0.1,0.6c0,0.8-0.3,1.4-0.8,1.9C14.7,22,14,22.3,13,22.3c-0.4,0-0.7,0-1.1-0.1c-0.1,0-0.2,0-0.2,0.1
			c-0.1,0.1-0.1,0.1-0.1,0.2s0,0.2,0.1,0.2c0.1,0.1,0.3,0.1,0.6,0.2l2.2,0.3c0.7,0.1,1.2,0.3,1.6,0.7c0.4,0.4,0.6,0.9,0.6,1.6
			s-0.4,1.2-1.1,1.7c-0.7,0.4-1.6,0.7-2.7,0.7s-1.9-0.2-2.5-0.6c-0.5-0.4-0.8-0.9-0.8-1.5c0-0.3,0.1-0.6,0.2-0.9
			c0.1-0.3,0.4-0.5,0.7-0.6C10,24.1,9.7,23.6,9.7,23C9.6,22.3,9.9,21.8,10.5,21.5z M11.5,25.6c0,0.3,0.4,0.5,1.3,0.5
			c0.6,0,1.1-0.1,1.4-0.2c0.4-0.1,0.6-0.3,0.6-0.5c0-0.3-0.2-0.4-0.7-0.5l-1.8-0.2c-0.2,0-0.4,0.1-0.5,0.3
			C11.6,25.3,11.5,25.5,11.5,25.6z M12,19c-0.2,0.2-0.3,0.4-0.3,0.6c0,0.3,0.1,0.5,0.3,0.6c0.2,0.2,0.5,0.2,0.9,0.2s0.7-0.1,0.9-0.2
			c0.2-0.2,0.3-0.4,0.3-0.6c0-0.3-0.1-0.5-0.3-0.6c-0.2-0.2-0.5-0.2-0.9-0.2S12.2,18.9,12,19z"/>
	</g>
</g>
</svg>
