<?xml version="1.0" encoding="utf-8"?>
<!-- Generator: Adobe Illustrator 18.0.0, SVG Export Plug-In . SVG Version: 6.00 Build 0)  -->
<!DOCTYPE svg PUBLIC "-//W3C//DTD SVG 1.1//EN" "http://www.w3.org/Graphics/SVG/1.1/DTD/svg11.dtd">
<svg version="1.1" id="Layer_1" xmlns="http://www.w3.org/2000/svg" xmlns:xlink="http://www.w3.org/1999/xlink" x="0px" y="0px"
	 width="40.3px" height="67.8px" viewBox="0 0 40.3 67.8" enable-background="new 0 0 40.3 67.8" xml:space="preserve">
<g>
	<path fill="#E6A123" d="M36.8,64.3H3.5c-1.9,0-3.5-1.6-3.5-3.5V20c0-1.9,1.6-3.5,3.5-3.5h33.3c1.9,0,3.5,1.6,3.5,3.5v40.8
		C40.3,62.8,38.8,64.3,36.8,64.3z"/>
	<ellipse fill="#E6A123" cx="20.2" cy="61.4" rx="20.2" ry="6.4"/>
	<path fill="#F8C30F" d="M38.4,16.8c-1.6,5.5-18.3,6-18.3,6s-16.7-0.5-18.3-6c0,0-1.8,1-1.6,3.1s4.9,6.3,19.8,6.3s19.7-4.2,19.8-6.3
		C40.2,17.8,38.4,16.8,38.4,16.8z"/>
	<ellipse fill="#F09037" cx="20.2" cy="18.8" rx="19.2" ry="6.1"/>
	<ellipse fill="#E6A123" cx="20.2" cy="16.5" rx="12.3" ry="3.9"/>
	<path fill="#E6A123" d="M32.4,5.2H20.2H8c0,0,3.5,6.3-0.1,11h12.3h12.3C28.8,11.4,32.4,5.2,32.4,5.2z"/>
	<path fill="#F8C30F" d="M34,3.4c-1.2,5.3-13.8,5.8-13.8,5.8S7.5,8.8,6.3,3.4c0,0-1.3,1-1.2,3c0.1,2.1,3.7,6.2,15,6.2
		s14.9-4.1,15-6.2S34,3.4,34,3.4z"/>
	<ellipse fill="#F09037" cx="20.2" cy="4.6" rx="14.5" ry="4.6"/>
	<g>
		<path fill="#754C24" d="M3.9,46.5v-2c0.8-0.4,1.6-0.8,2.4-1.3c0.8-0.6,1.4-1,1.7-1.2c0.3-0.3,0.7-0.6,1-0.9
			c0.7-0.7,1.1-1.4,1.1-2.1c0-0.8-0.8-1.2-2.3-1.2c-0.6,0-1.2,0.1-1.7,0.3v1.7H3.7v-3.6c1-0.5,2.3-0.8,3.9-0.8c3.3,0,5,1.2,5,3.6
			c0,0.9-0.4,1.9-1.2,2.8s-1.8,1.8-3.1,2.7v0.1l2.4-0.3v-0.7H13l-0.2,3L3.9,46.5L3.9,46.5z"/>
		<path fill="#754C24" d="M15.9,45c-1-1.1-1.5-2.5-1.5-4.1c0-1.7,0.5-3.1,1.5-4.1c1-1.1,2.3-1.6,4-1.6s3.1,0.5,4,1.6
			s1.5,2.5,1.5,4.1c0,1.7-0.5,3.1-1.5,4.1s-2.3,1.6-4,1.6S16.9,46.1,15.9,45z M17.9,38.5c-0.5,0.6-0.8,1.4-0.8,2.4s0.3,1.8,0.8,2.4
			c0.5,0.6,1.2,1,2.1,1s1.5-0.3,2-1c0.5-0.6,0.8-1.4,0.8-2.4s-0.3-1.8-0.8-2.4c-0.5-0.6-1.2-1-2.1-1S18.4,37.8,17.9,38.5z"/>
		<path fill="#754C24" d="M27.9,42.4c-0.7-0.6-1-1.5-1-2.5s0.4-1.9,1.1-2.6s1.8-1,3.1-1c0.8,0,1.6,0.1,2.2,0.4h3.3V39h-1.3
			c0.1,0.3,0.2,0.6,0.2,0.8c0,1-0.4,1.9-1.1,2.6c-0.8,0.7-1.8,1-3.1,1c-0.5,0-1-0.1-1.4-0.2c-0.1,0-0.2,0.1-0.3,0.1
			c-0.1,0.1-0.1,0.2-0.1,0.3s0,0.2,0.1,0.3s0.4,0.2,0.9,0.2l2.9,0.4c0.9,0.1,1.6,0.5,2.2,1c0.5,0.5,0.8,1.2,0.8,2.1
			s-0.5,1.6-1.5,2.2c-1,0.6-2.2,0.9-3.7,0.9s-2.6-0.3-3.3-0.8c-0.7-0.5-1.1-1.2-1.1-2.1c0-0.4,0.1-0.8,0.3-1.2
			c0.2-0.4,0.5-0.6,0.9-0.8c-0.7-0.3-1.1-0.9-1.1-1.8C26.8,43.4,27.2,42.8,27.9,42.4z M29.3,47.9c0,0.4,0.6,0.6,1.7,0.6
			c0.8,0,1.4-0.1,1.9-0.2c0.5-0.1,0.7-0.4,0.7-0.7S33.3,47,32.7,47l-2.4-0.3c-0.3,0.1-0.5,0.2-0.7,0.4S29.3,47.6,29.3,47.9z M30,39
			c-0.3,0.2-0.4,0.5-0.4,0.9s0.1,0.6,0.4,0.9c0.3,0.2,0.7,0.3,1.3,0.3c0.5,0,1-0.1,1.3-0.3s0.4-0.5,0.4-0.9s-0.1-0.6-0.4-0.9
			c-0.3-0.2-0.7-0.3-1.3-0.3S30.2,38.8,30,39z"/>
	</g>
</g>
</svg>
