<?xml version="1.0" encoding="utf-8"?>
<!-- Generator: Adobe Illustrator 18.0.0, SVG Export Plug-In . SVG Version: 6.00 Build 0)  -->
<!DOCTYPE svg PUBLIC "-//W3C//DTD SVG 1.1//EN" "http://www.w3.org/Graphics/SVG/1.1/DTD/svg11.dtd">
<svg version="1.1" id="Layer_1" xmlns="http://www.w3.org/2000/svg" xmlns:xlink="http://www.w3.org/1999/xlink" x="0px" y="0px"
	 width="45.8px" height="77.1px" viewBox="0 0 45.8 77.1" enable-background="new 0 0 45.8 77.1" xml:space="preserve">
<g>
	<path fill="#E6A123" d="M41.9,73.1H4c-2.2,0-4-1.8-4-4V22.7c0-2.2,1.8-4,4-4h37.9c2.2,0,4,1.8,4,4v46.4
		C45.8,71.3,44,73.1,41.9,73.1z"/>
	<ellipse fill="#E6A123" cx="22.9" cy="69.8" rx="22.9" ry="7.3"/>
	<path fill="#F8C30F" d="M43.7,19.1c-1.8,6.2-20.8,6.8-20.8,6.8s-19-0.6-20.8-6.8c0,0-2,1.1-1.8,3.5s5.6,7.2,22.6,7.2
		s22.3-4.8,22.6-7.2S43.7,19.1,43.7,19.1z"/>
	<ellipse fill="#F09037" cx="22.9" cy="21.3" rx="21.8" ry="6.9"/>
	<ellipse fill="#E6A123" cx="22.9" cy="18.7" rx="13.9" ry="4.4"/>
	<path fill="#E6A123" d="M36.8,5.9H22.9H9.1c0,0,4,7.1-0.1,12.5h13.9h13.9C32.8,13,36.8,5.9,36.8,5.9z"/>
	<path fill="#F8C30F" d="M38.6,3.9c-1.3,6.1-15.7,6.6-15.7,6.6S8.6,10,7.2,3.9c0,0-1.5,1.1-1.3,3.5s4.2,7,17.1,7s16.9-4.7,17.1-7
		S38.6,3.9,38.6,3.9z"/>
	<ellipse fill="#F09037" cx="22.9" cy="5.2" rx="16.4" ry="5.2"/>
	<g>
		<path fill="#754C24" d="M16,41.1v4h-2.4v-1.5h-3.1L10,46.7c0.5-0.2,0.9-0.2,1.5-0.2c1.4,0,2.6,0.4,3.5,1.2s1.4,2,1.4,3.5
			c0,1.8-0.6,3.1-1.7,3.9c-1,0.8-2.4,1.2-4.1,1.2S7.5,56,6.4,55.5l1-2.3c0.4,0.2,0.9,0.3,1.6,0.5c0.6,0.1,1.2,0.2,1.7,0.2
			c0.9,0,1.6-0.2,2.2-0.6c0.6-0.4,0.9-1.1,0.9-1.9c0-0.8-0.2-1.4-0.7-1.8c-0.5-0.4-1.1-0.5-1.7-0.5s-1.3,0.2-2,0.6l-2-0.5l1.2-7.9
			H16V41.1z"/>
		<path fill="#754C24" d="M19.3,51.1c-1-1.1-1.5-2.6-1.5-4.3s0.5-3.2,1.5-4.3s2.4-1.7,4.2-1.7s3.2,0.6,4.2,1.7
			c1,1.1,1.5,2.6,1.5,4.3s-0.5,3.2-1.5,4.3s-2.4,1.7-4.2,1.7S20.3,52.3,19.3,51.1z M21.3,44.3c-0.5,0.7-0.8,1.5-0.8,2.5
			s0.3,1.9,0.8,2.5s1.2,1,2.1,1s1.6-0.3,2.1-1s0.8-1.5,0.8-2.5s-0.3-1.9-0.8-2.5c-0.5-0.7-1.2-1-2.1-1S21.8,43.7,21.3,44.3z"/>
		<path fill="#754C24" d="M31.7,48.4c-0.7-0.6-1-1.5-1-2.6s0.4-1.9,1.2-2.6c0.8-0.7,1.9-1,3.3-1c0.9,0,1.6,0.2,2.2,0.5h3.4V45h-1.4
			c0.1,0.3,0.2,0.6,0.2,0.8c0,1.1-0.4,2-1.2,2.7s-1.9,1-3.3,1c-0.5,0-1-0.1-1.5-0.2c-0.1,0-0.2,0.1-0.3,0.2s-0.1,0.2-0.1,0.3
			s0,0.2,0.1,0.3c0.2,0.1,0.4,0.2,0.9,0.2l3,0.4c0.9,0.1,1.7,0.5,2.2,1s0.8,1.3,0.8,2.2s-0.5,1.7-1.5,2.3s-2.3,0.9-3.8,0.9
			s-2.7-0.3-3.4-0.8c-0.8-0.6-1.1-1.3-1.1-2.1c0-0.4,0.1-0.8,0.3-1.2c0.2-0.4,0.5-0.6,0.9-0.8c-0.7-0.3-1.1-0.9-1.1-1.8
			S30.9,48.8,31.7,48.4z M33.1,54.1c0,0.4,0.6,0.6,1.8,0.6c0.8,0,1.5-0.1,2-0.2c0.5-0.2,0.8-0.4,0.8-0.7c0-0.4-0.3-0.6-0.9-0.6
			l-2.5-0.3c-0.3,0.1-0.5,0.2-0.8,0.4C33.2,53.6,33.1,53.8,33.1,54.1z M33.8,44.9c-0.3,0.2-0.5,0.5-0.5,0.9s0.2,0.7,0.5,0.9
			s0.7,0.3,1.3,0.3s1-0.1,1.3-0.3s0.5-0.5,0.5-0.9s-0.2-0.7-0.5-0.9s-0.7-0.3-1.3-0.3C34.5,44.6,34.1,44.7,33.8,44.9z"/>
	</g>
</g>
</svg>
