<?xml version="1.0" encoding="utf-8"?>
<!-- Generator: Adobe Illustrator 18.0.0, SVG Export Plug-In . SVG Version: 6.00 Build 0)  -->
<!DOCTYPE svg PUBLIC "-//W3C//DTD SVG 1.1//EN" "http://www.w3.org/Graphics/SVG/1.1/DTD/svg11.dtd">
<svg version="1.1" id="Layer_1" xmlns="http://www.w3.org/2000/svg" xmlns:xlink="http://www.w3.org/1999/xlink" x="0px" y="0px"
	 width="51.7px" height="87px" viewBox="0 0 51.7 87" enable-background="new 0 0 51.7 87" xml:space="preserve">
<g>
	<path fill="#E6A123" d="M47.2,82.5H4.5C2,82.5,0,80.5,0,78V25.7c0-2.5,2-4.5,4.5-4.5h42.8c2.5,0,4.5,2,4.5,4.5V78
		C51.7,80.5,49.7,82.5,47.2,82.5z"/>
	<ellipse fill="#E6A123" cx="25.9" cy="78.8" rx="25.9" ry="8.2"/>
	<path fill="#F8C30F" d="M49.3,21.6c-2,7-23.4,7.7-23.4,7.7S4.4,28.6,2.4,21.6c0,0-2.3,1.3-2,4s6.3,8.1,25.5,8.1s25.2-5.4,25.5-8.1
		S49.3,21.6,49.3,21.6z"/>
	<ellipse fill="#F09037" cx="25.9" cy="24.1" rx="24.6" ry="7.8"/>
	<ellipse fill="#E6A123" cx="25.9" cy="21.1" rx="15.7" ry="5"/>
	<path fill="#E6A123" d="M41.5,6.6H25.9H10.2c0,0,4.5,8-0.1,14.1h15.7h15.7C37,14.6,41.5,6.6,41.5,6.6z"/>
	<path fill="#F8C30F" d="M43.6,4.4c-1.5,6.9-17.7,7.5-17.7,7.5S9.6,11.3,8.1,4.4c0,0-1.7,1.2-1.5,3.9s4.8,7.9,19.2,7.9
		S44.9,11,45.1,8.3S43.6,4.4,43.6,4.4z"/>
	<ellipse fill="#F09037" cx="25.9" cy="5.9" rx="18.6" ry="5.9"/>
	<g>
		<path fill="#754C24" d="M10.3,54.4h2.5v2.4H5.3v-2.4h2.5v-5.7l-2.2,0.5l-0.5-1.8l5.3-1.9v8.9H10.3z"/>
		<path fill="#754C24" d="M15.7,55.3c-1-1.1-1.5-2.5-1.5-4.1s0.5-3,1.5-4.1s2.3-1.6,4-1.6s3,0.5,4,1.6s1.5,2.5,1.5,4.1
			s-0.5,3-1.5,4.1s-2.3,1.6-4,1.6C18.1,57,16.7,56.4,15.7,55.3z M17.7,48.8c-0.5,0.6-0.8,1.4-0.8,2.4s0.3,1.8,0.8,2.4
			c0.5,0.6,1.2,0.9,2,0.9s1.5-0.3,2-0.9c0.5-0.6,0.8-1.4,0.8-2.4s-0.3-1.8-0.8-2.4c-0.5-0.6-1.2-1-2-1
			C18.9,47.9,18.2,48.2,17.7,48.8z"/>
		<path fill="#754C24" d="M27.6,55.3c-1-1.1-1.5-2.5-1.5-4.1s0.5-3,1.5-4.1s2.3-1.6,4-1.6c1.7,0,3,0.5,4,1.6s1.5,2.5,1.5,4.1
			s-0.5,3-1.5,4.1s-2.3,1.6-4,1.6C29.9,57,28.6,56.4,27.6,55.3z M29.6,48.8c-0.5,0.6-0.8,1.4-0.8,2.4s0.3,1.8,0.8,2.4
			c0.5,0.6,1.2,0.9,2,0.9c0.9,0,1.5-0.3,2-0.9c0.5-0.6,0.8-1.4,0.8-2.4s-0.3-1.8-0.8-2.4c-0.5-0.6-1.2-1-2-1
			C30.8,47.9,30.1,48.2,29.6,48.8z"/>
		<path fill="#754C24" d="M39.6,52.7c-0.7-0.6-1-1.4-1-2.5c0-1,0.4-1.9,1.1-2.5s1.8-1,3.1-1c0.8,0,1.6,0.1,2.1,0.4h3.3v2.3h-1.3
			c0.1,0.3,0.2,0.6,0.2,0.8c0,1-0.4,1.9-1.1,2.6s-1.8,1-3.1,1c-0.5,0-1-0.1-1.4-0.2c-0.1,0-0.2,0.1-0.3,0.1C41,53.9,41,54,41,54.1
			s0,0.2,0.1,0.3s0.4,0.2,0.9,0.2l2.9,0.4c0.9,0.1,1.6,0.5,2.1,1s0.8,1.2,0.8,2.1c0,0.9-0.5,1.6-1.4,2.2c-1,0.6-2.2,0.9-3.7,0.9
			s-2.6-0.3-3.3-0.8s-1.1-1.2-1.1-2.1c0-0.4,0.1-0.8,0.3-1.2s0.5-0.6,0.9-0.8c-0.7-0.3-1.1-0.9-1.1-1.8
			C38.4,53.7,38.8,53.1,39.6,52.7z M40.9,58.2c0,0.4,0.6,0.6,1.7,0.6c0.8,0,1.4-0.1,1.9-0.2c0.5-0.1,0.7-0.4,0.7-0.7
			s-0.3-0.5-0.9-0.6L41.9,57c-0.3,0.1-0.5,0.2-0.7,0.4C41,57.7,40.9,58,40.9,58.2z M41.6,49.4c-0.3,0.2-0.4,0.5-0.4,0.9
			s0.1,0.6,0.4,0.9s0.7,0.3,1.2,0.3s1-0.1,1.2-0.3s0.4-0.5,0.4-0.9s-0.1-0.6-0.4-0.9s-0.7-0.3-1.2-0.3S41.9,49.2,41.6,49.4z"/>
	</g>
</g>
</svg>
