<?xml version="1.0" encoding="utf-8"?>
<!-- Generator: Adobe Illustrator 18.0.0, SVG Export Plug-In . SVG Version: 6.00 Build 0)  -->
<!DOCTYPE svg PUBLIC "-//W3C//DTD SVG 1.1//EN" "http://www.w3.org/Graphics/SVG/1.1/DTD/svg11.dtd">
<svg version="1.1" id="Layer_1" xmlns="http://www.w3.org/2000/svg" xmlns:xlink="http://www.w3.org/1999/xlink" x="0px" y="0px"
	 width="1024px" height="768px" viewBox="0 0 1024 768" enable-background="new 0 0 1024 768" xml:space="preserve">
<rect y="0.3" fill="#A0E4F6" width="1024" height="768"/>
<path opacity="0.15" fill="#959333" enable-background="new    " d="M731.4,231.3l8.5,64.8c0,0-16.7-14.3-19.1-33
	S731.4,231.3,731.4,231.3z"/>
<path opacity="0.15" fill="#7EB53F" enable-background="new    " d="M732.8,231.1l8.5,64.8c0,0,12.4-18.1,10-36.8
	C748.8,240.4,732.8,231.1,732.8,231.1z"/>
<path opacity="0.15" fill="#959333" enable-background="new    " d="M783.9,276.9l-22.4,61.4c0,0-8.2-20.4-1.7-38.1
	S783.9,276.9,783.9,276.9z"/>
<path opacity="0.15" fill="#7EB53F" enable-background="new    " d="M785.2,277.4l-22.4,61.4c0,0,19.4-10.3,25.8-28
	S785.2,277.4,785.2,277.4z"/>
<path opacity="0.15" fill="#959333" enable-background="new    " d="M690.8,315.3l58.8,28.5c0,0-21.1,6.1-38-2.1
	C694.6,333.5,690.8,315.3,690.8,315.3z"/>
<path opacity="0.15" fill="#7EB53F" enable-background="new    " d="M691.4,314.1l58.8,28.5c0,0-8.3-20.3-25.2-28.5
	C708,305.8,691.4,314.1,691.4,314.1z"/>
<path opacity="0.15" fill="#959333" enable-background="new    " d="M719.2,385.8l64.5,10.1c0,0-18.4,12-37,9
	C728.1,402,719.2,385.8,719.2,385.8z"/>
<path opacity="0.15" fill="#7EB53F" enable-background="new    " d="M719.4,384.4l64.5,10.1c0,0-13.9-17-32.5-19.9
	C732.9,371.7,719.4,384.4,719.4,384.4z"/>
<path opacity="0.15" fill="#959333" enable-background="new    " d="M771,457.8l61-23.4c0,0-10,19.5-27.6,26.3
	C786.9,467.4,771,457.8,771,457.8z"/>
<path opacity="0.15" fill="#7EB53F" enable-background="new    " d="M770.5,456.5l61-23.4c0,0-20.5-7.8-38.1-1.1
	S770.5,456.5,770.5,456.5z"/>
<path opacity="0.15" fill="#959333" enable-background="new    " d="M830.4,485l61-23.4c0,0-10,19.5-27.6,26.3S830.4,485,830.4,485z
	"/>
<path opacity="0.15" fill="#7EB53F" enable-background="new    " d="M830,483.7l61-23.4c0,0-20.5-7.8-38.1-1.1
	C835.3,466,830,483.7,830,483.7z"/>
<path opacity="0.15" fill="#959333" enable-background="new    " d="M812.7,323.2l-15.4,63.5c0,0-10.4-19.3-6-37.6
	S812.7,323.2,812.7,323.2z"/>
<path opacity="0.15" fill="#7EB53F" enable-background="new    " d="M814.1,323.5L798.7,387c0,0,18.1-12.4,22.5-30.7
	C825.7,338,814.1,323.5,814.1,323.5z"/>
<path opacity="0.15" fill="#959333" enable-background="new    " d="M851.4,361.4l-13.5,63.9c0,0-11-19-7.1-37.4
	C834.7,369.5,851.4,361.4,851.4,361.4z"/>
<path opacity="0.15" fill="#7EB53F" enable-background="new    " d="M852.8,361.7l-13.6,63.9c0,0,17.7-12.9,21.6-31.4
	C864.7,375.8,852.8,361.7,852.8,361.7z"/>
<path opacity="0.15" fill="#959333" enable-background="new    " d="M901.3,386.7L890,451.1c0,0-11.6-18.6-8.4-37.2
	S901.3,386.7,901.3,386.7z"/>
<path opacity="0.15" fill="#7EB53F" enable-background="new    " d="M902.6,387l-11.3,64.3c0,0,17.3-13.6,20.5-32.1
	C915.1,400.7,902.6,387,902.6,387z"/>
<path opacity="0.15" fill="none" stroke="#7DC4AE" stroke-width="4" stroke-linecap="round" stroke-miterlimit="10" enable-background="new    " d="
	M963.2,466.4c0,0-56.8,5.3-123.1-34.8c-84.4-51.2-97.5-129.5-97.5-129.5"/>
<path opacity="0.15" fill="#959333" enable-background="new    " d="M452.6,605.8l41.4-29.9c0,0-3.6,16.8-15.6,25.4
	S452.6,605.8,452.6,605.8z"/>
<path opacity="0.15" fill="#7EB53F" enable-background="new    " d="M451.9,604.9l41.4-29.9c0,0-17.1-1.8-29,6.8
	C452.4,590.5,451.9,604.9,451.9,604.9z"/>
<path opacity="0.15" fill="#959333" enable-background="new    " d="M464.5,552.7l50.5-7.4c0,0-11,13.2-25.5,15.3
	C474.9,562.8,464.5,552.7,464.5,552.7z"/>
<path opacity="0.15" fill="#7EB53F" enable-background="new    " d="M464.3,551.6l50.6-7.4c0,0-14.3-9.5-28.9-7.4
	C471.4,539,464.3,551.6,464.3,551.6z"/>
<path opacity="0.15" fill="#7EB53F" enable-background="new    " d="M524.4,602.6l-2.2-51.1c0,0-10.9,13.3-10.3,28
	C512.6,594.2,524.4,602.6,524.4,602.6z"/>
<path opacity="0.15" fill="#959333" enable-background="new    " d="M563.4,556.8l-17-48.2c0,0,15.1,8.2,20,22.1
	C571.3,544.6,563.4,556.8,563.4,556.8z"/>
<path opacity="0.15" fill="#7EB53F" enable-background="new    " d="M562.4,557.2l-17-48.2c0,0-6.6,15.9-1.6,29.8
	C548.6,552.6,562.4,557.2,562.4,557.2z"/>
<path opacity="0.15" fill="#959333" enable-background="new    " d="M593.7,494.3L554.9,461c0,0,17.2-0.4,28.3,9.2
	S593.7,494.3,593.7,494.3z"/>
<path opacity="0.15" fill="#7EB53F" enable-background="new    " d="M593,495.1l-38.8-33.3c0,0,2.2,17,13.4,26.6
	S593,495.1,593,495.1z"/>
<path opacity="0.15" fill="#959333" enable-background="new    " d="M590.3,443.3L551.5,410c0,0,17.2-0.4,28.3,9.2
	S590.3,443.3,590.3,443.3z"/>
<path opacity="0.15" fill="#7EB53F" enable-background="new    " d="M589.6,444.1l-38.8-33.3c0,0,2.2,17,13.4,26.6
	C575.4,447.1,589.6,444.1,589.6,444.1z"/>
<path opacity="0.15" fill="#959333" enable-background="new    " d="M485.6,515.7l49.4-13c0,0-9.4,14.4-23.7,18.1
	C497.1,524.5,485.6,515.7,485.6,515.7z"/>
<path opacity="0.15" fill="#7EB53F" enable-background="new    " d="M485.3,514.6l49.4-13c0,0-15.3-7.8-29.5-4.1
	C490.9,501.3,485.3,514.6,485.3,514.6z"/>
<path opacity="0.15" fill="#959333" enable-background="new    " d="M497.5,474.9l49-14.4c0,0-9,14.6-23.1,18.8
	C509.2,483.4,497.5,474.9,497.5,474.9z"/>
<path opacity="0.15" fill="#7EB53F" enable-background="new    " d="M497.2,473.8l49-14.4c0,0-15.5-7.4-29.6-3.2
	C502.4,460.3,497.2,473.8,497.2,473.8z"/>
<path opacity="0.15" fill="#959333" enable-background="new    " d="M496.4,431.1l48.5-16.2c0,0-8.5,14.9-22.5,19.6
	C508.4,439.2,496.4,431.1,496.4,431.1z"/>
<path opacity="0.15" fill="#7EB53F" enable-background="new    " d="M496,430.1l48.5-16.2c0,0-15.7-6.8-29.7-2.2
	C500.8,416.4,496,430.1,496,430.1z"/>
<path opacity="0.15" fill="none" stroke="#7DC4AE" stroke-width="3.1286" stroke-linecap="round" stroke-miterlimit="10" enable-background="new    " d="
	M528.1,358.9c0,0,24.8,37.1,21.8,97.7c-3.8,77.1-52.9,115.2-52.9,115.2"/>
<path opacity="0.15" fill="#959333" enable-background="new    " d="M374.2,279.8l-47.1-45.3c0,0,21.9,0.8,35.5,13.8
	S374.2,279.8,374.2,279.8z"/>
<path opacity="0.15" fill="#7EB53F" enable-background="new    " d="M373.2,280.7l-47.1-45.3c0,0,1.6,21.9,15.2,34.9
	S373.2,280.7,373.2,280.7z"/>
<path opacity="0.15" fill="#959333" enable-background="new    " d="M304.7,276.9L283.8,215c0,0,19.1,10.8,25.1,28.6
	S304.7,276.9,304.7,276.9z"/>
<path opacity="0.15" fill="#7EB53F" enable-background="new    " d="M303.4,277.3l-20.9-61.9c0,0-8.7,20.2-2.7,38
	C285.9,271.3,303.4,277.3,303.4,277.3z"/>
<path opacity="0.15" fill="#959333" enable-background="new    " d="M353.4,188.7l-63.7,14.5c0,0,12.7-17.9,31-22.1
	C339.1,177,353.4,188.7,353.4,188.7z"/>
<path opacity="0.15" fill="#7EB53F" enable-background="new    " d="M353.7,190.1L290,204.5c0,0,19.2,10.7,37.5,6.5
	C345.9,206.9,353.7,190.1,353.7,190.1z"/>
<path opacity="0.15" fill="#959333" enable-background="new    " d="M287.3,151.5l-56.7,32.4c0,0,6.9-20.8,23.3-30.2
	S287.3,151.5,287.3,151.5z"/>
<path opacity="0.15" fill="#7EB53F" enable-background="new    " d="M288,152.7l-56.7,32.4c0,0,21.5,4.6,37.8-4.7
	S288,152.7,288,152.7z"/>
<path opacity="0.15" fill="#959333" enable-background="new    " d="M201.8,127.6l-33,56.4c0,0-4.4-21.5,5.1-37.8
	S201.8,127.6,201.8,127.6z"/>
<path opacity="0.15" fill="#7EB53F" enable-background="new    " d="M203,128.3l-33,56.4c0,0,20.9-6.7,30.4-22.9
	C209.9,145.5,203,128.3,203,128.3z"/>
<path opacity="0.15" fill="#959333" enable-background="new    " d="M138.4,143.5l-33,56.4c0,0-4.4-21.5,5.1-37.8
	S138.4,143.5,138.4,143.5z"/>
<path opacity="0.15" fill="#7EB53F" enable-background="new    " d="M139.6,144.2l-33,56.4c0,0,20.9-6.7,30.4-22.9
	S139.6,144.2,139.6,144.2z"/>
<path opacity="0.15" fill="#959333" enable-background="new    " d="M253.3,258.8l-27.7-59.2c0,0,20.2,8.6,28.2,25.6
	C261.8,242.3,253.3,258.8,253.3,258.8z"/>
<path opacity="0.15" fill="#7EB53F" enable-background="new    " d="M252,259.4l-27.7-59.2c0,0-6.4,21,1.6,38.1
	C233.9,255.3,252,259.4,252,259.4z"/>
<path opacity="0.15" fill="#959333" enable-background="new    " d="M199.2,253.1l-29.3-58.4c0,0,20.4,8,28.9,24.8
	C207.2,236.4,199.2,253.1,199.2,253.1z"/>
<path opacity="0.15" fill="#7EB53F" enable-background="new    " d="M198,253.7l-29.3-58.4c0,0-5.8,21.2,2.7,38
	C179.8,250.2,198,253.7,198,253.7z"/>
<path opacity="0.15" fill="#959333" enable-background="new    " d="M144.5,264.4l-31.4-57.3c0,0,20.7,7.3,29.8,23.8
	S144.5,264.4,144.5,264.4z"/>
<path opacity="0.15" fill="#7EB53F" enable-background="new    " d="M143.3,265.1l-31.4-57.3c0,0-5,21.4,4,37.9
	S143.3,265.1,143.3,265.1z"/>
<path opacity="0.15" fill="#959333" enable-background="new    " d="M116.7,541.1l-37.2-26.2c0,0,15.2-1.8,25.9,5.7
	C116.1,528.2,116.7,541.1,116.7,541.1z"/>
<path opacity="0.15" fill="#7EB53F" enable-background="new    " d="M116.1,541.8l-37.2-26.2c0,0,3.4,14.9,14.2,22.4
	C103.8,545.7,116.1,541.8,116.1,541.8z"/>
<path opacity="0.15" fill="#959333" enable-background="new    " d="M149.3,537.2l-14-43.3c0,0,13.2,7.7,17.3,20.2
	C156.6,526.5,149.3,537.2,149.3,537.2z"/>
<path opacity="0.15" fill="#7EB53F" enable-background="new    " d="M148.4,537.5l-14-43.3c0,0-6.2,14-2.2,26.4
	C136.2,533.1,148.4,537.5,148.4,537.5z"/>
<path opacity="0.15" fill="#959333" enable-background="new    " d="M93.8,566.2l-45-6.8c0,0,12.8-8.4,25.7-6.4
	C87.6,554.9,93.8,566.2,93.8,566.2z"/>
<path opacity="0.15" fill="#7EB53F" enable-background="new    " d="M93.7,567.2l-45-6.8c0,0,9.7,11.8,22.7,13.8
	S93.7,567.2,93.7,567.2z"/>
<path opacity="0.15" fill="#959333" enable-background="new    " d="M90.9,584.1l-24.2,38.6c0,0-2.6-15.1,4.4-26.2
	C78,585.4,90.9,584.1,90.9,584.1z"/>
<path opacity="0.15" fill="#7EB53F" enable-background="new    " d="M91.7,584.6l-24.2,38.6c0,0,14.7-4.2,21.7-15.3
	C96.1,596.7,91.7,584.6,91.7,584.6z"/>
<path opacity="0.15" fill="#959333" enable-background="new    " d="M111.5,574.6l10.2,44.4c0,0-12.5-8.8-15.4-21.6
	C103.3,584.6,111.5,574.6,111.5,574.6z"/>
<path opacity="0.15" fill="#7EB53F" enable-background="new    " d="M112.4,574.4l10.2,44.4c0,0,7.4-13.4,4.5-26.2
	C124.1,579.8,112.4,574.4,112.4,574.4z"/>
<path opacity="0.15" fill="#959333" enable-background="new    " d="M151.5,554.6l2.1,45.5c0,0-10.7-10.9-11.3-24
	S151.5,554.6,151.5,554.6z"/>
<path opacity="0.15" fill="#7EB53F" enable-background="new    " d="M152.5,554.6l2.1,45.5c0,0,9.7-11.8,9.1-24.9
	C163.1,562,152.5,554.6,152.5,554.6z"/>
<path opacity="0.15" fill="none" stroke="#7DC4AE" stroke-width="4" stroke-linecap="round" stroke-miterlimit="10" enable-background="new    " d="
	M46.4,240.9c0,0,41.1-39.6,117.9-49.7c97.9-12.8,157,40.2,157,40.2"/>
<path opacity="0.15" fill="none" stroke="#7DC4AE" stroke-width="4" stroke-linecap="round" stroke-miterlimit="10" enable-background="new    " d="
	M270.3,710.5c0,0-22.3-64.7-68.5-126.9c-58.9-79.3-104-9.2-104-9.2"/>
<path opacity="0.15" fill="#959333" enable-background="new    " d="M736.8,85.3l-3.8,45.3c0,0,11.1-10.5,12.2-23.6
	C746.3,94,736.8,85.3,736.8,85.3z"/>
<path opacity="0.15" fill="#7EB53F" enable-background="new    " d="M735.9,85.3l-3.8,45.3c0,0-9.2-12.2-8.2-25.3
	C725,92.3,735.9,85.3,735.9,85.3z"/>
<path opacity="0.15" fill="#959333" enable-background="new    " d="M760.7,62.8l24.3,38.5c0,0,2.6-15.1-4.4-26.2
	S760.7,62.8,760.7,62.8z"/>
<path opacity="0.15" fill="#7EB53F" enable-background="new    " d="M759.9,63.3l24.3,38.5c0,0-14.7-4.2-21.7-15.3
	C755.4,75.4,759.9,63.3,759.9,63.3z"/>
<path opacity="0.15" fill="#959333" enable-background="new    " d="M702.9,86.7l-23.6,38.9c0,0,14.6-4.4,21.4-15.7
	S702.9,86.7,702.9,86.7z"/>
<path opacity="0.15" fill="#7EB53F" enable-background="new    " d="M702.1,86.3l-23.6,38.9c0,0-2.8-15,4-26.2
	C689.2,87.7,702.1,86.3,702.1,86.3z"/>
<path opacity="0.15" fill="#959333" enable-background="new    " d="M687.2,77.6l-45.1-6.1c0,0,9.9,11.7,22.9,13.4
	C678,86.6,687.2,77.6,687.2,77.6z"/>
<path opacity="0.15" fill="#7EB53F" enable-background="new    " d="M687.4,76.6l-45.1-6.1c0,0,12.7-8.6,25.6-6.8
	C680.9,65.4,687.4,76.6,687.4,76.6z"/>
<path opacity="0.15" fill="#959333" enable-background="new    " d="M707.7,67.8l-27.6-36.2c0,0-1.2,15.2,6.7,25.7
	C694.8,67.7,707.7,67.8,707.7,67.8z"/>
<path opacity="0.15" fill="#7EB53F" enable-background="new    " d="M708.5,67.2L681,31c0,0,15,2.9,23,13.3S708.5,67.2,708.5,67.2z"
	/>
<path opacity="0.15" fill="#959333" enable-background="new    " d="M748.7,49.9l-33.6-30.7c0,0,1.5,15.2,11.2,24.1
	C736,52.1,748.7,49.9,748.7,49.9z"/>
<path opacity="0.15" fill="#7EB53F" enable-background="new    " d="M749.4,49.2l-33.6-30.7c0,0,15.3,0.1,25,9
	C750.5,36.3,749.4,49.2,749.4,49.2z"/>
<circle opacity="0.15" fill="#765683" enable-background="new    " cx="806.9" cy="126.4" r="23"/>
<ellipse opacity="0.15" fill="#765683" enable-background="new    " cx="806.3" cy="105.3" rx="5.9" ry="2"/>
<ellipse opacity="0.15" fill="#765683" enable-background="new    " cx="806.9" cy="147.4" rx="5.9" ry="2"/>
<circle opacity="0.15" fill="#765683" enable-background="new    " cx="966.7" cy="236.5" r="15.8"/>
<ellipse transform="matrix(-0.5881 -0.8088 0.8088 -0.5881 1339.079 1132.0803)" opacity="0.15" fill="#765683" enable-background="new    " cx="957.8" cy="225.1" rx="1.4" ry="4"/>
<ellipse transform="matrix(-0.5881 -0.8088 0.8088 -0.5881 1348.0522 1182.7762)" opacity="0.15" fill="#765683" enable-background="new    " cx="975.2" cy="248.1" rx="1.4" ry="4"/>
<circle opacity="0.15" fill="#765683" enable-background="new    " cx="583.4" cy="354" r="15"/>
<ellipse transform="matrix(0.5823 -0.813 0.813 0.5823 -31.6105 623.5919)" opacity="0.15" fill="#765683" enable-background="new    " cx="591" cy="342.6" rx="1.3" ry="3.8"/>
<ellipse transform="matrix(0.5823 -0.813 0.813 0.5823 -56.4312 620.3386)" opacity="0.15" fill="#765683" enable-background="new    " cx="575.5" cy="365.1" rx="1.3" ry="3.8"/>
<circle opacity="0.15" fill="#765683" enable-background="new    " cx="868.8" cy="615.9" r="20.1"/>
<ellipse transform="matrix(-0.4312 -0.9022 0.9022 -0.4312 690.4342 1634.2355)" opacity="0.15" fill="#765683" enable-background="new    " cx="860.3" cy="599.5" rx="1.7" ry="5.1"/>
<ellipse transform="matrix(-0.4312 -0.9022 0.9022 -0.4312 684.0632 1696.0675)" opacity="0.15" fill="#765683" enable-background="new    " cx="876.6" cy="632.4" rx="1.7" ry="5.1"/>
<circle opacity="0.15" fill="#765683" enable-background="new    " cx="963.2" cy="528.8" r="20.1"/>
<ellipse transform="matrix(0.2034 -0.9791 0.9791 0.2034 269.7571 1352.9093)" opacity="0.15" fill="#765683" enable-background="new    " cx="966.3" cy="510.7" rx="1.7" ry="5.1"/>
<ellipse transform="matrix(0.2034 -0.9791 0.9791 0.2034 229.0223 1374.8522)" opacity="0.15" fill="#765683" enable-background="new    " cx="959.4" cy="546.7" rx="1.7" ry="5.1"/>
<circle opacity="0.15" fill="#765683" enable-background="new    " cx="523.9" cy="697.8" r="29"/>
<ellipse transform="matrix(0.2034 -0.9791 0.9791 0.2034 -236.6335 1052.5276)" opacity="0.15" fill="#765683" enable-background="new    " cx="528.5" cy="671.7" rx="2.5" ry="7.4"/>
<ellipse transform="matrix(0.2034 -0.9791 0.9791 0.2034 -295.606 1084.2385)" opacity="0.15" fill="#765683" enable-background="new    " cx="518.5" cy="723.8" rx="2.5" ry="7.4"/>
<circle opacity="0.15" fill="#765683" enable-background="new    " cx="62.5" cy="461.6" r="29"/>
<ellipse transform="matrix(-0.303 -0.953 0.953 -0.303 -346.1115 620.0574)" opacity="0.15" fill="#765683" enable-background="new    " cx="53.7" cy="436.6" rx="2.5" ry="7.4"/>
<ellipse transform="matrix(-0.303 -0.953 0.953 -0.303 -372.0185 701.6865)" opacity="0.15" fill="#765683" enable-background="new    " cx="70.6" cy="486.9" rx="2.5" ry="7.4"/>
<circle opacity="0.15" fill="#765683" enable-background="new    " cx="445.1" cy="93.9" r="17.9"/>
<ellipse transform="matrix(-0.3787 -0.9255 0.9255 -0.3787 531.4782 514.7023)" opacity="0.15" fill="#765683" enable-background="new    " cx="438.5" cy="79" rx="1.6" ry="4.6"/>
<ellipse transform="matrix(-0.3787 -0.9255 0.9255 -0.3787 521.3661 567.9218)" opacity="0.15" fill="#765683" enable-background="new    " cx="451.3" cy="109" rx="1.6" ry="4.6"/>
<circle opacity="0.15" fill="#765683" enable-background="new    " cx="250.7" cy="333.9" r="23.5"/>
<ellipse transform="matrix(0.7035 -0.7107 0.7107 0.7035 -147.387 282.8641)" opacity="0.15" fill="#765683" enable-background="new    " cx="265.3" cy="318.1" rx="2" ry="6"/>
<ellipse transform="matrix(0.7035 -0.7107 0.7107 0.7035 -178.2476 270.9476)" opacity="0.15" fill="#765683" enable-background="new    " cx="235.6" cy="349.1" rx="2" ry="6"/>
<path opacity="0.15" fill="#7EB53F" enable-background="new    " d="M419.4,135.1c0,0,21.7-6.5,36.9,0c15.2,6.5,22.7-2.9,22.7-2.9
	s7.6,1,9.8,10.8c0,0,2.2,4.5,2.7,0c0.4-4.5,0.9-11.1-8.5-17.8c0,0,2.2-5.3,2-18.1c-0.2-12.7,1.8-25.4,3.1-27.4s-0.9-3.8-3.8,0
	S464.5,96,466,109.8c1.6,13.8-4.1,9.6-10.5,8C449.1,116.2,428.7,107.8,419.4,135.1z"/>
<path opacity="0.15" fill="#7EB53F" enable-background="new    " d="M786.1,190.3c0,0,21.7-6.5,36.9,0s22.7-2.9,22.7-2.9
	s7.6,1,9.8,10.8c0,0,2.2,4.5,2.7,0c0.4-4.5,0.9-11.1-8.5-17.8c0,0,2.2-5.3,2-18.1s1.8-25.4,3.1-27.4s-0.9-3.8-3.8,0
	c-2.9,3.8-19.8,16.3-18.3,30.1s-4.1,9.6-10.5,8S795.4,163,786.1,190.3z"/>
<path opacity="0.15" fill="#7EB53F" enable-background="new    " d="M679.2,549.5c0,0,9,11.8,8.4,22.6s7,13.3,7,13.3
	s1.1,4.9-4.4,8.5c0,0-2.2,2.4,0.6,1.6c2.8-0.7,7-2,9-9.3c0,0,3.8,0.1,11.5-2.9s16-4.7,17.5-4.3s2.1-1.4-0.9-2.3
	c-3-0.9-14.5-8.5-22.6-4.3s-6.8-0.3-7.3-4.6S698,549,679.2,549.5z"/>
<path opacity="0.15" fill="#7EB53F" enable-background="new    " d="M933.2,563.3c0,0,18.2,2.9,26.9,13c8.8,10.1,17.6,5.9,17.6,5.9
	s5.2,3.4,3.3,11.3c0,0,0.1,4,2,0.9s4.6-7.8,0.1-16c0,0,3.5-3.1,7.9-12.5c4.3-9.4,10.3-17.9,12-18.9s0.7-3.1-2.8-1.3
	c-3.5,1.7-20.2,4.9-24,15.5c-3.7,10.6-6.4,5.5-10.5,2.1C961.6,560.1,949.6,546.7,933.2,563.3z"/>
<path opacity="0.15" fill="#249477" enable-background="new    " d="M180.2,321.9c0,0,15.4,24.4,12.5,45.3
	c-2.9,20.8,11.3,27,11.3,27s1.4,9.6-9.9,15.7c0,0-4.7,4.3,0.9,3.3s14-2.7,19-16.5c0,0,7.3,0.9,22.9-3.7c15.5-4.6,31.8-6.4,34.8-5.5
	c2.9,1,4.4-2.4-1.3-4.7c-5.6-2.3-26.7-18.9-43.2-12.3s-13.2-1.8-13.4-10.2C213.5,352,216.8,324.1,180.2,321.9z"/>
<path opacity="0.15" fill="#7BB342" enable-background="new    " d="M95.5,719c0,0-19.1,0.9-30.1-7.6c-11.1-8.5-19.2-2.3-19.2-2.3
	s-6-2.4-5.8-10.8c0,0-0.9-4.1-2.2-0.5s-3,8.9,3.3,16.3c0,0-2.9,3.9-5.3,14.4c-2.4,10.4-6.7,20.4-8.2,21.8c-1.5,1.4,0,3.3,3.1,0.8
	s19.6-9.2,21.1-20.9c1.6-11.6,5.3-7,10.3-4.4S82.3,739.4,95.5,719z"/>
<path opacity="0.15" fill="#249477" enable-background="new    " d="M174.1,669.5c0,0,18.1,10,23.4,24c5.4,14,16.4,13,16.4,13
	s4.2,5.6-0.8,13.2c0,0-1.5,4.3,1.7,1.7s7.8-6.5,6.2-16.9c0,0,4.9-2,13-10.2s17.7-15,19.8-15.4c2.2-0.4,1.9-3-2.4-2.5
	c-4.3,0.5-23.2-2.6-31.2,7.2s-8.9,3.4-11.9-1.8S197.8,658.2,174.1,669.5z"/>
<path opacity="0.15" fill="#249477" enable-background="new    " d="M604.7,179.6c0,0,24.2-18.8-21.1-56.9
	C583.5,122.7,567.6,164.8,604.7,179.6z"/>
<path opacity="0.15" fill="#7BB342" enable-background="new    " d="M659.3,154.9c0,0-32.9-11.3-54.7,24.6
	C604.7,179.6,642.1,189.7,659.3,154.9z"/>
<path opacity="0.15" fill="#249477" enable-background="new    " d="M869.7,674.6c0,0,13.1-27.6-44.5-41.2
	C825.2,633.4,830,678.1,869.7,674.6z"/>
<path opacity="0.15" fill="#249477" enable-background="new    " d="M543,736.4c0,0,23.9,19.1,50.3-34
	C593.3,702.4,548.6,696.9,543,736.4z"/>
<path opacity="0.15" fill="#249477" enable-background="new    " d="M1001,746.7c0,0,19.6-24.7-35.1-51.7
	C965.9,695.1,960.3,741,1001,746.7z"/>
<path opacity="0.15" fill="#249477" enable-background="new    " d="M114.6,83.5c0,0,11-28.6-47.5-37.7
	C67.1,45.7,75.2,90,114.6,83.5z"/>
<path opacity="0.15" fill="#7BB342" enable-background="new    " d="M907.4,628c0,0-34.4,4.7-37.7,46.6
	C869.7,674.6,907.7,666.8,907.4,628z"/>
<circle opacity="0.15" fill="#765683" enable-background="new    " cx="363.8" cy="519.5" r="20.1"/>
<ellipse transform="matrix(0.9763 -0.2164 0.2164 0.9763 -102.3865 94.7905)" opacity="0.15" fill="#765683" enable-background="new    " cx="381.6" cy="514.9" rx="1.7" ry="5.1"/>
<ellipse transform="matrix(0.9763 -0.2164 0.2164 0.9763 -105.0901 87.2412)" opacity="0.15" fill="#765683" enable-background="new    " cx="345.8" cy="523.5" rx="1.7" ry="5.1"/>
<path opacity="0.15" fill="#249477" enable-background="new    " d="M306.3,507.1c0,0,24,19,50.2-34
	C356.6,473.1,311.9,467.6,306.3,507.1z"/>
<path opacity="0.15" fill="#7BB342" enable-background="new    " d="M343.3,554.3c0,0,3.2-34.6-36.9-47.2
	C306.3,507.1,305.4,545.9,343.3,554.3z"/>
<path opacity="0.15" fill="#249477" enable-background="new    " d="M474.5,344c0,0-11.4-28.4-60.5,4.7
	C414,348.7,450.1,375.6,474.5,344z"/>
<path opacity="0.15" fill="#7BB342" enable-background="new    " d="M465.8,284.7c0,0-19.9,28.5,8.7,59.3
	C474.5,344,494.5,310.8,465.8,284.7z"/>
<path opacity="0.15" fill="#249477" enable-background="new    " d="M62.9,281.8c0,0-20.5-3.1-18,36.8
	C44.9,318.6,72.9,306.9,62.9,281.8z"/>
<path opacity="0.15" fill="#7BB342" enable-background="new    " d="M25.4,266.5c0,0,9.7,21.4,37.5,15.3
	C62.9,281.8,50.4,258.7,25.4,266.5z"/>
<path opacity="0.15" fill="#249477" enable-background="new    " d="M304.5,14.6c0,0,4.9,20.1,40.9,2.7
	C345.4,17.3,323.9-4.2,304.5,14.6z"/>
<path opacity="0.15" fill="#7BB342" enable-background="new    " d="M304.6,55.2c0,0,16.1-17.1-0.1-40.5
	C304.5,14.6,287.9,34.9,304.6,55.2z"/>
<path opacity="0.15" fill="#7BB342" enable-background="new    " d="M992.3,34.2c0,0-41.3,27.7-19.1,83.6
	C973.2,117.8,1017.1,83.9,992.3,34.2z"/>
<path opacity="0.15" fill="none" stroke="#7DC4AE" stroke-width="4" stroke-linecap="round" stroke-miterlimit="10" enable-background="new    " d="
	M715.6,76.1c0,0,58.2-24.8,90.1-53.9"/>
</svg>
