<?xml version="1.0" encoding="utf-8"?>
<!-- Generator: Adobe Illustrator 18.0.0, SVG Export Plug-In . SVG Version: 6.00 Build 0)  -->
<!DOCTYPE svg PUBLIC "-//W3C//DTD SVG 1.1//EN" "http://www.w3.org/Graphics/SVG/1.1/DTD/svg11.dtd">
<svg version="1.1" xmlns="http://www.w3.org/2000/svg" xmlns:xlink="http://www.w3.org/1999/xlink" x="0px" y="0px"
	 viewBox="0 0 1024 768" enable-background="new 0 0 1024 768" xml:space="preserve">
	 
	  <style>
 svg * {
          -webkit-transition: all 0.3s;
      }
      
 @media all and (min-width: 151px){
       #ro {
            -webkit-animation: rotate-animation 2s infinite;
            transform-origin: (494,446);
        }
        @-webkit-keyframes rotate-animation {
            0%   { transform: rotate(0deg); }
            50%  { transform: rotate(20deg); }
            100% { transform: rotate(0deg); }
        }

      
      }



    </style>

	 
<g id="ro">
	<g>
		<path d="M70.8,188.5c4.6-0.9,11.9-1.6,19.5-1.6c10.8,0,17.7,1.8,22.7,6c4.4,3.2,6.9,8,6.9,14.7c0,8-5.3,14.9-14,18.1v0.2
			c7.8,2.1,17,8.5,17,20.9c0,7.1-2.8,12.6-7.1,16.5c-5.7,5.3-15.1,7.8-28.7,7.8c-7.3,0-13.1-0.5-16.5-0.9v-81.6H70.8z M81.6,222.4
			h9.6c11.2,0,17.9-6,17.9-14c0-9.6-7.3-13.5-18.1-13.5c-4.8,0-7.8,0.5-9.4,0.7V222.4z M81.6,262c2.1,0.5,5,0.5,8.9,0.5
			c11,0,21.3-4.1,21.3-16c0-11.2-9.6-16-21.3-16h-8.9V262z"/>
		<path d="M170.1,270.3l-0.9-7.6h-0.5c-3.2,4.6-9.6,8.9-18.1,8.9c-11.9,0-18.1-8.5-18.1-17c0-14.4,12.8-22.2,35.8-22v-1.1
			c0-4.8-1.4-13.8-13.5-13.8c-5.5,0-11.2,1.8-15.6,4.4l-2.5-7.1c4.8-3.2,11.9-5.3,19.5-5.3c18.1,0,22.7,12.4,22.7,24.3v22.2
			c0,5.3,0.2,10.1,0.9,14.2h-9.6V270.3z M168.5,239.8c-11.7-0.2-25.2,1.8-25.2,13.3c0,7.1,4.6,10.3,10.1,10.3
			c7.8,0,12.6-4.8,14.4-9.9c0.5-1.1,0.7-2.3,0.7-3.4L168.5,239.8L168.5,239.8z"/>
		<path d="M196.2,183H207v87.1h-10.8V183z"/>
		<path d="M258.1,270.3l-0.9-7.6h-0.5c-3.2,4.6-9.6,8.9-18.1,8.9c-11.9,0-18.1-8.5-18.1-17c0-14.4,12.8-22.2,35.8-22v-1.1
			c0-4.8-1.4-13.8-13.5-13.8c-5.5,0-11.2,1.8-15.6,4.4l-2.5-7.1c4.8-3.2,11.9-5.3,19.5-5.3c18.1,0,22.7,12.4,22.7,24.3v22.2
			c0,5.3,0.2,10.1,0.9,14.2h-9.6V270.3z M256.5,239.8c-11.7-0.2-25.2,1.8-25.2,13.3c0,7.1,4.6,10.3,10.1,10.3
			c7.8,0,12.6-4.8,14.4-9.9c0.5-1.1,0.7-2.3,0.7-3.4L256.5,239.8L256.5,239.8z"/>
		<path d="M284.5,227c0-6.2-0.2-11.2-0.5-16h9.6l0.7,9.9h0.2c3-5.7,9.9-11.2,19.7-11.2c8.3,0,21.1,4.8,21.1,25.2v35.5h-10.8v-34.4
			c0-9.6-3.7-17.7-13.8-17.7c-7.1,0-12.6,5-14.4,11c-0.5,1.4-0.7,3.2-0.7,5v35.8h-10.8V227H284.5z"/>
		<path d="M395,268c-2.8,1.4-9.2,3.4-17,3.4c-17.9,0-29.6-12.1-29.6-30.3c0-18.3,12.6-31.6,31.9-31.6c6.4,0,11.9,1.6,14.9,3
			l-2.5,8.3c-2.5-1.4-6.6-2.8-12.6-2.8c-13.5,0-21.1,10.1-21.1,22.5c0,13.8,8.9,22.2,20.6,22.2c6.2,0,10.1-1.6,13.3-3L395,268z"/>
		<path d="M412.9,242.6c0.2,14.7,9.6,20.6,20.4,20.6c7.8,0,12.4-1.4,16.5-3l1.8,7.8c-3.9,1.8-10.3,3.7-19.7,3.7
			c-18.3,0-29.1-11.9-29.1-30s10.5-32.1,28-32.1c19.5,0,24.5,17,24.5,28c0,2.3-0.2,3.9-0.5,5L412.9,242.6L412.9,242.6z M444.5,234.8
			c0.2-6.9-2.8-17.7-14.9-17.7c-11,0-15.8,10.1-16.5,17.7H444.5z"/>
	</g>
	<g>
		<path d="M551.1,193.7c5.5-1.1,13.1-1.6,20.4-1.6c11.5,0,18.8,2.1,23.8,6.6c4.1,3.7,6.4,9.4,6.4,15.8c0,11-6.9,18.1-15.6,21.1v0.5
			c6.4,2.3,10.1,8,12.1,16.7c2.8,11.5,4.6,19.5,6.4,22.7h-11c-1.4-2.3-3.2-9.4-5.5-19.7c-2.5-11.5-6.9-15.8-16.5-16h-10.1v35.8
			h-10.8v-81.8H551.1z M561.9,231.6h11c11.5,0,18.6-6.2,18.6-15.8c0-10.8-7.8-15.4-19-15.4c-5.3,0-8.9,0.5-10.5,0.9L561.9,231.6
			L561.9,231.6z"/>
		<path d="M671,245.3c0,22-15.1,31.6-29.6,31.6c-16,0-28.4-11.7-28.4-30.5c0-19.9,13.1-31.6,29.6-31.6
			C659.5,214.6,671,227,671,245.3z M624,245.8c0,13.1,7.6,22.9,18.1,22.9c10.3,0,18.1-9.6,18.1-23.2c0-10.1-5-22.9-17.9-22.9
			C629.5,222.8,624,234.5,624,245.8z"/>
		<path d="M684.3,275.3c0.2-4.1,0.5-10.1,0.5-15.4v-71.8h10.8v37.4h0.2c3.9-6.6,10.8-11,20.2-11c14.7,0,25.2,12.4,25,30.3
			c0,21.3-13.3,31.9-26.6,31.9c-8.7,0-15.6-3.2-19.9-11.2h-0.5l-0.5,9.9H684.3L684.3,275.3z M695.3,251.5c0,1.4,0.2,2.8,0.5,3.9
			C697.8,263,704,268,712,268c11.2,0,18.1-9.2,18.1-22.9c0-11.9-6.2-22-17.7-22c-7.3,0-14.2,5-16.5,13.3c-0.2,1.1-0.7,2.8-0.7,4.4
			V251.5z"/>
		<path d="M760.6,247.6c0.2,14.7,9.6,20.6,20.4,20.6c7.8,0,12.4-1.4,16.5-3l1.8,7.8c-3.9,1.6-10.3,3.7-19.7,3.7
			c-18.3,0-29.1-11.9-29.1-30c0-17.9,10.5-32.1,28-32.1c19.5,0,24.5,17,24.5,28c0,2.3-0.2,3.9-0.5,5L760.6,247.6L760.6,247.6z
			 M792.2,240c0.2-6.9-2.8-17.7-14.9-17.7c-11,0-15.8,10.1-16.5,17.7H792.2z"/>
		<path d="M816.1,234.5c0-7.1-0.2-13.1-0.5-18.6h9.4l0.5,11.7h0.5c2.8-8,9.2-13.1,16.5-13.1c1.1,0,2.1,0.2,3,0.5v10.1
			c-1.1-0.2-2.3-0.5-3.7-0.5c-7.6,0-13.1,5.7-14.4,14c-0.2,1.4-0.5,3.2-0.5,5v31.6h-10.8V234.5z"/>
		<path d="M863.5,216l11.7,33.5c2.1,5.5,3.7,10.3,4.8,15.1h0.5c1.4-4.8,3-9.9,5-15.1L897,216h11.2l-23.4,59.4h-10.3L851.8,216H863.5
			z"/>
		<path d="M950.9,275.3l-0.9-7.6h-0.5c-3.2,4.6-9.6,8.9-18.1,8.9c-11.9,0-18.1-8.5-18.1-17c0-14.4,12.8-22.2,35.8-22v-1.1
			c0-4.8-1.4-13.8-13.5-13.8c-5.5,0-11.2,1.8-15.6,4.4l-2.5-7.1c4.8-3.2,12.1-5.3,19.5-5.3c18.1,0,22.7,12.4,22.7,24.3v22.2
			c0,5,0.2,10.1,0.9,14.2h-9.6V275.3z M949.3,245.1c-11.7-0.2-25.2,1.8-25.2,13.3c0,7.1,4.6,10.3,10.1,10.3c7.8,0,12.6-4.8,14.4-9.9
			c0.5-1.1,0.7-2.3,0.7-3.4L949.3,245.1L949.3,245.1z"/>
		<path d="M977,188.2h10.8v87.1H977V188.2z"/>
	</g>
	<g>
		<path d="M530,538.3c-93.5,0-181.6-19.5-247.8-57.1c-67.4-38.3-104.5-90.3-104.5-143H190c0,103.2,152.4,190.3,340,190.3
			s340-87.1,340-190.3h12.4c0,52.7-37.1,104.8-104.5,143C711.6,518.8,623.5,538.3,530,538.3z"/>
	</g>
	<g>
		<rect x="93.5" y="338.2" width="176.5" height="11.5"/>
	</g>
	<g>
		<rect x="778.9" y="338.2" width="176.5" height="11.5"/>
	</g>
</g>
<g id="Calque_2">
	<g>
		<path d="M624,601.8H435.8L530,436.3L624,601.8z M453.4,592.6h153.1L530,458L453.4,592.6z"/>
	</g>
</g>
</svg>
