<?xml version="1.0" encoding="utf-8"?>
<!-- Generator: Adobe Illustrator 18.0.0, SVG Export Plug-In . SVG Version: 6.00 Build 0)  -->
<!DOCTYPE svg PUBLIC "-//W3C//DTD SVG 1.1//EN" "http://www.w3.org/Graphics/SVG/1.1/DTD/svg11.dtd">
<svg version="1.1" xmlns="http://www.w3.org/2000/svg" xmlns:xlink="http://www.w3.org/1999/xlink" x="0px" y="0px"
	 viewBox="0 0 303.9 227.9" enable-background="new 0 0 303.9 227.9" xml:space="preserve">
<g id="Calque_1" display="none">
	<g id="Pause_10_" display="inline">
		<g>
			<path fill="#3E3E3E" d="M339.8-14.6c0,0.5,0.4,0.9,0.9,0.9h7c0.5,0,0.9-0.4,0.9-0.9c0-0.5-0.4-0.9-0.9-0.9h-7
				C340.2-15.5,339.8-15.1,339.8-14.6z M346.6-28.4c-0.5-0.1-0.9,0.2-1,0.7c-0.1,0.5,0.2,0.9,0.7,1c5.9,1,10.1,6.1,10.1,12.1
				c0,6-4.3,11.1-10.1,12.1c-0.5,0.1-0.8,0.5-0.7,1c0.1,0.4,0.4,0.7,0.9,0.7c0,0,0.1,0,0.2,0c6.7-1.2,11.6-7,11.6-13.8
				C358.2-21.4,353.3-27.2,346.6-28.4z M342-2.5c-5.9-1-10.1-6.1-10.1-12.1c0-6,4.3-11.1,10.1-12.1c0.5-0.1,0.8-0.5,0.7-1
				c-0.1-0.5-0.5-0.8-1-0.7c-6.7,1.2-11.6,7-11.6,13.8c0,6.8,4.9,12.6,11.6,13.8c0.1,0,0.1,0,0.2,0c0.4,0,0.8-0.3,0.9-0.7
				C342.8-2,342.5-2.4,342-2.5z"/>
		</g>
	</g>
</g>
<g id="Calque_2">
	<g id="Pause_8_">
		<g>
			<path fill="#3E3E3E" d="M153.2,104.5c0-0.5-0.4-0.9-0.9-0.9h-2.6v-2.6c0-0.5-0.4-0.9-0.9-0.9c-0.5,0-0.9,0.4-0.9,0.9v2.6h-2.6
				c-0.5,0-0.9,0.4-0.9,0.9c0,0.5,0.4,0.9,0.9,0.9h2.6v2.6c0,0.5,0.4,0.9,0.9,0.9c0.5,0,0.9-0.4,0.9-0.9v-2.6h2.6
				C152.8,105.3,153.2,104.9,153.2,104.5z M151.3,90.6c-0.5-0.1-0.9,0.2-1,0.7c-0.1,0.5,0.2,0.9,0.7,1c5.9,1,10.1,6.1,10.1,12.1
				c0,6-4.3,11.1-10.1,12.1c-0.5,0.1-0.8,0.5-0.7,1c0.1,0.4,0.4,0.7,0.9,0.7c0,0,0.1,0,0.2,0c6.7-1.2,11.6-7,11.6-13.8
				C162.9,97.6,158,91.8,151.3,90.6z M146.7,116.5c-5.9-1-10.1-6.1-10.1-12.1c0-6,4.3-11.1,10.1-12.1c0.5-0.1,0.8-0.5,0.7-1
				c-0.1-0.5-0.5-0.8-1-0.7c-6.7,1.2-11.6,7-11.6,13.8c0,6.8,4.9,12.6,11.6,13.8c0.1,0,0.1,0,0.2,0c0.4,0,0.8-0.3,0.9-0.7
				C147.5,117.1,147.2,116.6,146.7,116.5z"/>
		</g>
	</g>
</g>
</svg>
