<?xml version="1.0" encoding="utf-8"?>
<!-- Generator: Adobe Illustrator 18.0.0, SVG Export Plug-In . SVG Version: 6.00 Build 0)  -->
<!DOCTYPE svg PUBLIC "-//W3C//DTD SVG 1.1//EN" "http://www.w3.org/Graphics/SVG/1.1/DTD/svg11.dtd">
<svg version="1.1" id="Layer_1" xmlns="http://www.w3.org/2000/svg" xmlns:xlink="http://www.w3.org/1999/xlink" x="0px" y="0px"
	 width="65.3px" height="109.9px" viewBox="0 0 65.3 109.9" enable-background="new 0 0 65.3 109.9" xml:space="preserve">
<g>
	<path fill="#E6A123" d="M59.7,104.2h-54c-3.1,0-5.7-2.5-5.7-5.7V32.4c0-3.1,2.5-5.7,5.7-5.7h54c3.1,0,5.7,2.5,5.7,5.7v66.2
		C65.3,101.7,62.8,104.2,59.7,104.2z"/>
	<ellipse fill="#E6A123" cx="32.7" cy="99.5" rx="32.7" ry="10.4"/>
	<path fill="#F8C30F" d="M62.3,27.2c-2.5,8.9-29.6,9.7-29.6,9.7S5.6,36.1,3,27.2c0,0-2.9,1.6-2.5,5s8,10.3,32.2,10.3
		s31.8-6.8,32.2-10.3C65.1,28.8,62.3,27.2,62.3,27.2z"/>
	<ellipse fill="#F09037" cx="32.7" cy="30.4" rx="31.1" ry="9.9"/>
	<ellipse fill="#E6A123" cx="32.7" cy="26.7" rx="19.8" ry="6.3"/>
	<path fill="#E6A123" d="M52.4,8.4H32.7H12.9c0,0,5.7,10.1-0.1,17.8h19.8h19.8C46.7,18.5,52.4,8.4,52.4,8.4z"/>
	<path fill="#F8C30F" d="M55,5.6C53.1,14.2,32.7,15,32.7,15s-20.5-0.8-22.4-9.5c0,0-2.2,1.6-1.9,4.9c0.2,3.4,6,10,24.3,10
		s24.1-6.7,24.3-10C57.2,7.1,55,5.6,55,5.6z"/>
	<ellipse fill="#F09037" cx="32.7" cy="7.4" rx="23.4" ry="7.4"/>
	<g>
		<path fill="#754C24" d="M19.3,60v4.3h-2.6v-1.7h-3.4L12.7,66c0.5-0.2,1-0.2,1.6-0.2c1.5,0,2.8,0.4,3.8,1.3s1.5,2.1,1.5,3.8
			c0,1.9-0.6,3.3-1.9,4.2c-1.1,0.9-2.6,1.3-4.4,1.3s-3.3-0.3-4.6-0.9L9.8,73c0.4,0.2,1,0.4,1.7,0.5s1.3,0.2,1.9,0.2
			c1,0,1.7-0.2,2.4-0.7c0.6-0.5,1-1.1,1-2.1s-0.3-1.6-0.8-2c-0.5-0.4-1.2-0.6-1.9-0.6s-1.5,0.2-2.2,0.6l-2.2-0.5l1.3-8.6h8.3V60z"/>
		<path fill="#754C24" d="M22.9,70.9c-1.1-1.2-1.6-2.8-1.6-4.6c0-1.9,0.5-3.4,1.6-4.6c1.1-1.2,2.6-1.8,4.5-1.8s3.4,0.6,4.5,1.8
			s1.6,2.8,1.6,4.6c0,1.9-0.5,3.4-1.6,4.6s-2.6,1.8-4.5,1.8S24,72.1,22.9,70.9z M25.1,63.5c-0.6,0.7-0.8,1.6-0.8,2.7s0.3,2,0.9,2.7
			s1.3,1.1,2.3,1.1s1.7-0.4,2.3-1.1c0.6-0.7,0.8-1.6,0.8-2.7s-0.3-2-0.9-2.7s-1.3-1.1-2.3-1.1C26.4,62.5,25.7,62.8,25.1,63.5z"/>
		<path fill="#754C24" d="M36.3,70.9c-1.1-1.2-1.6-2.8-1.6-4.6c0-1.9,0.5-3.4,1.6-4.6c1.1-1.2,2.6-1.8,4.5-1.8s3.4,0.6,4.5,1.8
			s1.6,2.8,1.6,4.6c0,1.9-0.5,3.4-1.6,4.6s-2.6,1.8-4.5,1.8S37.4,72.1,36.3,70.9z M38.5,63.5c-0.6,0.7-0.8,1.6-0.8,2.7
			s0.3,2,0.9,2.7c0.6,0.7,1.3,1.1,2.3,1.1s1.7-0.4,2.3-1.1s0.8-1.6,0.8-2.7s-0.3-2-0.9-2.7c-0.6-0.7-1.3-1.1-2.3-1.1
			C39.8,62.5,39.1,62.8,38.5,63.5z"/>
		<path fill="#754C24" d="M49.8,67.9c-0.8-0.7-1.1-1.6-1.1-2.8c0-1.2,0.4-2.1,1.3-2.9c0.8-0.8,2-1.1,3.5-1.1c1,0,1.8,0.2,2.4,0.5
			h3.7v2.6H58c0.1,0.4,0.2,0.7,0.2,0.9c0,1.2-0.4,2.1-1.3,2.9c-0.8,0.8-2,1.1-3.5,1.1c-0.6,0-1.1-0.1-1.6-0.2
			c-0.1,0-0.2,0.1-0.3,0.2s-0.1,0.2-0.1,0.3s0.1,0.2,0.2,0.3c0.2,0.1,0.5,0.2,1,0.2l3.3,0.5c1,0.1,1.8,0.5,2.4,1.1
			c0.6,0.6,0.9,1.4,0.9,2.4s-0.5,1.8-1.6,2.5s-2.5,1-4.1,1c-1.7,0-2.9-0.3-3.7-0.9s-1.2-1.4-1.2-2.3c0-0.5,0.1-0.9,0.3-1.3
			s0.5-0.7,1-0.9c-0.8-0.3-1.2-1-1.2-2S48.9,68.4,49.8,67.9z M51.3,74.1c0,0.5,0.6,0.7,1.9,0.7c0.9,0,1.6-0.1,2.2-0.2
			c0.6-0.2,0.8-0.4,0.8-0.7c0-0.4-0.3-0.6-1-0.7l-2.7-0.3c-0.3,0.1-0.6,0.2-0.8,0.5C51.4,73.6,51.3,73.8,51.3,74.1z M52,64.2
			c-0.3,0.2-0.5,0.6-0.5,1s0.2,0.7,0.5,1c0.3,0.2,0.8,0.4,1.4,0.4c0.6,0,1.1-0.1,1.4-0.4c0.3-0.2,0.5-0.6,0.5-1s-0.2-0.7-0.5-1
			c-0.3-0.2-0.8-0.4-1.4-0.4C52.8,63.8,52.3,63.9,52,64.2z"/>
	</g>
</g>
</svg>
