<?xml version="1.0" encoding="utf-8"?>
<!-- Generator: Adobe Illustrator 18.0.0, SVG Export Plug-In . SVG Version: 6.00 Build 0)  -->
<!DOCTYPE svg PUBLIC "-//W3C//DTD SVG 1.1//EN" "http://www.w3.org/Graphics/SVG/1.1/DTD/svg11.dtd">
<svg version="1.1" id="Layer_1" xmlns="http://www.w3.org/2000/svg" xmlns:xlink="http://www.w3.org/1999/xlink" x="0px" y="0px"
	 width="22.2px" height="37.4px" viewBox="0 0 22.2 37.4" enable-background="new 0 0 22.2 37.4" xml:space="preserve">
<g>
	<path fill="#E6A123" d="M20.3,35.5H1.9c-1.1,0-1.9-0.9-1.9-1.9V11c0-1,0.9-1.9,1.9-1.9h18.4c1.1,0,1.9,0.9,1.9,1.9v22.5
		C22.2,34.6,21.4,35.5,20.3,35.5z"/>
	<ellipse fill="#E6A123" cx="11.1" cy="33.9" rx="11.1" ry="3.5"/>
	<path fill="#F8C30F" d="M21.2,9.3c-0.9,3-10.1,3.3-10.1,3.3S1.9,12.3,1,9.3c0,0-1,0.5-0.9,1.7s2.7,3.5,10.9,3.5s10.8-2.3,10.9-3.5
		S21.2,9.3,21.2,9.3z"/>
	<ellipse fill="#F09037" cx="11.1" cy="10.3" rx="10.6" ry="3.4"/>
	<ellipse fill="#E6A123" cx="11.1" cy="9.1" rx="6.8" ry="2.1"/>
	<path fill="#E6A123" d="M17.8,2.8h-6.7H4.4c0,0,1.9,3.4,0,6.1h6.8H18C15.9,6.3,17.8,2.8,17.8,2.8z"/>
	<path fill="#F8C30F" d="M18.7,1.9c-0.7,2.9-7.6,3.2-7.6,3.2s-7-0.3-7.6-3.2c0,0-0.7,0.5-0.7,1.7C2.9,4.7,4.9,7,11.1,7
		s8.2-2.3,8.3-3.4S18.7,1.9,18.7,1.9z"/>
	<ellipse fill="#F09037" cx="11.1" cy="2.5" rx="8" ry="2.5"/>
	<g>
		<path fill="#754C24" d="M2,27v-1.8c0.7-0.4,1.4-0.8,2.2-1.2c0.7-0.5,1.2-0.8,1.6-1.1c0.3-0.3,0.6-0.5,0.9-0.8c0.6-0.6,1-1.2,1-1.9
			c0-0.7-0.7-1.1-2.1-1.1c-0.6,0-1.1,0.1-1.6,0.3v1.5H1.8v-3.2C2.7,17.2,3.9,17,5.4,17c3,0,4.5,1.1,4.5,3.3c0,0.8-0.4,1.7-1.1,2.5
			c-0.7,0.9-1.6,1.7-2.8,2.4v0.1L8.2,25v-0.6h2.1L10.2,27H2z"/>
		<path fill="#754C24" d="M12.9,23.3C12.3,22.8,12,22,12,21.1s0.3-1.7,1-2.3c0.7-0.6,1.6-0.9,2.9-0.9c0.8,0,1.4,0.1,2,0.4h3v2.1
			h-1.2c0.1,0.3,0.1,0.5,0.1,0.7c0,0.9-0.3,1.7-1,2.3c-0.7,0.6-1.6,0.9-2.9,0.9c-0.4,0-0.9,0-1.3-0.1c-0.1,0-0.2,0.1-0.3,0.1
			c-0.1,0.1-0.1,0.2-0.1,0.3s0,0.2,0.1,0.2c0.1,0.1,0.4,0.2,0.8,0.2l2.7,0.4c0.8,0.1,1.5,0.4,2,0.9s0.7,1.1,0.7,1.9s-0.4,1.5-1.3,2
			s-2,0.8-3.3,0.8c-1.4,0-2.4-0.2-3-0.7c-0.7-0.5-1-1.1-1-1.9c0-0.4,0.1-0.7,0.3-1.1c0.2-0.3,0.4-0.6,0.8-0.7c-0.7-0.3-1-0.8-1-1.6
			C11.9,24.3,12.2,23.7,12.9,23.3z M14.2,28.4c0,0.4,0.5,0.6,1.6,0.6c0.7,0,1.3-0.1,1.7-0.2c0.5-0.1,0.7-0.3,0.7-0.6
			c0-0.3-0.3-0.5-0.8-0.6l-2.2-0.3c-0.3,0-0.5,0.2-0.7,0.4C14.3,27.9,14.2,28.1,14.2,28.4z M14.8,20.3c-0.3,0.2-0.4,0.5-0.4,0.8
			s0.1,0.6,0.4,0.8c0.3,0.2,0.6,0.3,1.1,0.3c0.5,0,0.9-0.1,1.1-0.3c0.3-0.2,0.4-0.5,0.4-0.8s-0.1-0.6-0.4-0.8
			c-0.3-0.2-0.6-0.3-1.1-0.3S15,20.1,14.8,20.3z"/>
	</g>
</g>
</svg>
