<?xml version="1.0" encoding="utf-8"?>
<!-- Generator: Adobe Illustrator 18.0.0, SVG Export Plug-In . SVG Version: 6.00 Build 0)  -->
<!DOCTYPE svg PUBLIC "-//W3C//DTD SVG 1.1//EN" "http://www.w3.org/Graphics/SVG/1.1/DTD/svg11.dtd">
<svg version="1.1" id="Layer_1" xmlns="http://www.w3.org/2000/svg" xmlns:xlink="http://www.w3.org/1999/xlink" x="0px" y="0px"
	 width="60.1px" height="101.1px" viewBox="0 0 60.1 101.1" enable-background="new 0 0 60.1 101.1" xml:space="preserve">
<g>
	<path fill="#E6A123" d="M54.9,95.9H5.2c-2.9,0-5.2-2.3-5.2-5.2V29.8c0-2.9,2.3-5.2,5.2-5.2h49.7c2.9,0,5.2,2.3,5.2,5.2v60.9
		C60.1,93.6,57.8,95.9,54.9,95.9z"/>
	<ellipse fill="#E6A123" cx="30" cy="91.5" rx="30" ry="9.5"/>
	<path fill="#F8C30F" d="M57.3,25.1C55,33.2,30,34,30,34S5.1,33.2,2.8,25.1c0,0-2.6,1.5-2.3,4.6s7.3,9.4,29.6,9.4s29.3-6.3,29.6-9.4
		C59.9,26.5,57.3,25.1,57.3,25.1z"/>
	<ellipse fill="#F09037" cx="30" cy="28" rx="28.6" ry="9.1"/>
	<ellipse fill="#E6A123" cx="30" cy="24.5" rx="18.3" ry="5.8"/>
	<path fill="#E6A123" d="M48.2,7.7H30H11.9c0,0,5.3,9.3-0.1,16.4H30h18.3C43,17,48.2,7.7,48.2,7.7z"/>
	<path fill="#F8C30F" d="M50.6,5.1c-1.8,8-20.6,8.7-20.6,8.7S11.2,13.1,9.4,5.1c0,0-2,1.4-1.8,4.5s5.5,9.2,22.4,9.2
		s22.1-6.1,22.4-9.2S50.6,5.1,50.6,5.1z"/>
	<ellipse fill="#F09037" cx="30" cy="6.9" rx="21.6" ry="6.9"/>
	<g>
		<path fill="#754C24" d="M7.6,66.8v-2.1c0.8-0.4,1.6-0.9,2.5-1.4s1.4-0.9,1.8-1.2c0.4-0.3,0.7-0.6,1-1c0.7-0.7,1.1-1.4,1.1-2.2
			s-0.8-1.3-2.4-1.3c-0.6,0-1.2,0.1-1.8,0.3v1.7H7.5v-3.7c1.1-0.6,2.4-0.8,4.1-0.8c3.4,0,5.1,1.2,5.1,3.7c0,0.9-0.4,1.9-1.2,2.9
			s-1.9,1.9-3.2,2.7v0.1l2.4-0.3v-0.7h2.4l-0.2,3.1H7.6V66.8z"/>
		<path fill="#754C24" d="M20,65.3c-1-1.1-1.5-2.5-1.5-4.3s0.5-3.1,1.5-4.3c1-1.1,2.4-1.7,4.2-1.7c1.8,0,3.1,0.6,4.2,1.7
			c1,1.1,1.5,2.5,1.5,4.3s-0.5,3.1-1.5,4.3c-1,1.1-2.4,1.7-4.2,1.7S21,66.5,20,65.3z M22.1,58.6c-0.5,0.7-0.8,1.5-0.8,2.5
			s0.3,1.8,0.8,2.5c0.5,0.7,1.2,1,2.1,1s1.6-0.3,2.1-1c0.5-0.7,0.8-1.5,0.8-2.5s-0.3-1.8-0.8-2.5s-1.2-1-2.1-1
			C23.3,57.6,22.6,57.9,22.1,58.6z"/>
		<path fill="#754C24" d="M32.3,65.3c-1-1.1-1.5-2.5-1.5-4.3s0.5-3.1,1.5-4.3c1-1.1,2.4-1.7,4.2-1.7s3.1,0.6,4.2,1.7
			c1,1.1,1.5,2.5,1.5,4.3s-0.5,3.1-1.5,4.3c-1,1.1-2.4,1.7-4.2,1.7S33.3,66.5,32.3,65.3z M34.4,58.6c-0.5,0.7-0.8,1.5-0.8,2.5
			s0.3,1.8,0.8,2.5c0.5,0.7,1.2,1,2.1,1c0.9,0,1.6-0.3,2.1-1c0.5-0.7,0.8-1.5,0.8-2.5s-0.3-1.8-0.8-2.5s-1.2-1-2.1-1
			C35.6,57.6,34.9,57.9,34.4,58.6z"/>
		<path fill="#754C24" d="M44.7,62.6c-0.7-0.6-1-1.5-1-2.6s0.4-1.9,1.2-2.6c0.8-0.7,1.9-1,3.2-1c0.9,0,1.6,0.2,2.2,0.5h3.4v2.4h-1.4
			c0.1,0.3,0.2,0.6,0.2,0.8c0,1.1-0.4,1.9-1.2,2.6c-0.8,0.7-1.9,1-3.2,1c-0.5,0-1-0.1-1.5-0.2c-0.1,0-0.2,0.1-0.3,0.2
			s-0.1,0.2-0.1,0.3s0,0.2,0.1,0.3c0.2,0.1,0.4,0.2,0.9,0.2l3,0.4c0.9,0.1,1.7,0.5,2.2,1s0.8,1.3,0.8,2.2s-0.5,1.7-1.5,2.3
			c-1,0.6-2.3,0.9-3.8,0.9s-2.7-0.3-3.4-0.8c-0.8-0.6-1.1-1.3-1.1-2.1c0-0.4,0.1-0.8,0.3-1.2c0.2-0.4,0.5-0.6,0.9-0.8
			c-0.7-0.3-1.1-0.9-1.1-1.8C43.5,63.7,43.9,63,44.7,62.6z M46.1,68.3c0,0.4,0.6,0.6,1.8,0.6c0.8,0,1.5-0.1,2-0.2s0.8-0.4,0.8-0.7
			c0-0.4-0.3-0.6-0.9-0.6l-2.5-0.3c-0.3,0.1-0.5,0.2-0.7,0.4S46.1,68,46.1,68.3z M46.8,59.2c-0.3,0.2-0.5,0.5-0.5,0.9
			s0.2,0.7,0.5,0.9s0.7,0.3,1.3,0.3s1-0.1,1.3-0.3s0.5-0.5,0.5-0.9s-0.2-0.7-0.5-0.9s-0.7-0.3-1.3-0.3
			C47.5,58.8,47.1,58.9,46.8,59.2z"/>
	</g>
</g>
</svg>
