<?xml version="1.0" encoding="utf-8"?>
<!-- Generator: Adobe Illustrator 18.0.0, SVG Export Plug-In . SVG Version: 6.00 Build 0)  -->
<!DOCTYPE svg PUBLIC "-//W3C//DTD SVG 1.1//EN" "http://www.w3.org/Graphics/SVG/1.1/DTD/svg11.dtd">
<svg version="1.1" id="Layer_1" xmlns="http://www.w3.org/2000/svg" xmlns:xlink="http://www.w3.org/1999/xlink" x="0px" y="0px"
	 width="71.8px" height="120.8px" viewBox="0 0 71.8 120.8" enable-background="new 0 0 71.8 120.8" xml:space="preserve">
<g>
	<path fill="#E6A123" d="M65.6,114.7H6.2c-3.5,0-6.3-2.8-6.3-6.3V35.6c0-3.5,2.8-6.3,6.3-6.3h59.4c3.5,0,6.3,2.8,6.3,6.3v72.8
		C71.8,111.9,69.1,114.7,65.6,114.7z"/>
	<ellipse fill="#E6A123" cx="35.9" cy="109.4" rx="35.9" ry="11.4"/>
	<path fill="#F8C30F" d="M68.5,29.9c-2.8,9.7-32.6,10.6-32.6,10.6S6.1,39.6,3.3,29.9c0,0-3.1,1.8-2.8,5.6s8.8,11.3,35.4,11.3
		S71,39.3,71.3,35.5C71.6,31.7,68.5,29.9,68.5,29.9z"/>
	<ellipse fill="#F09037" cx="35.9" cy="33.4" rx="34.2" ry="10.8"/>
	<ellipse fill="#E6A123" cx="35.9" cy="29.3" rx="21.9" ry="6.9"/>
	<path fill="#E6A123" d="M57.7,9.2H35.9H14.1c0,0,6.3,11.2-0.1,19.6h21.9h21.9C51.3,20.3,57.7,9.2,57.7,9.2z"/>
	<path fill="#F8C30F" d="M60.6,6c-2.1,9.6-24.7,10.4-24.7,10.4S13.3,15.5,11.2,6c0,0-2.3,1.7-2.1,5.5c0.2,3.8,6.6,11.1,26.8,11.1
		s26.5-7.4,26.8-11.1S60.6,6,60.6,6z"/>
	<ellipse fill="#F09037" cx="35.9" cy="8.2" rx="25.8" ry="8.2"/>
	<g>
		<path fill="#754C24" d="M23.1,79.9h3.3v3.2H16.3v-3.2h3.3v-7.6L16.7,73l-0.8-2.6l7.1-2.6V79.9z"/>
		<path fill="#754C24" d="M28.1,66.1v-2.9h5.5v11.7l0.9-0.3l1.8-1.8h-0.9v-2.9h6.9v2.9h-1.5l-3.5,3.3l3.5,4.2h2v2.3
			c-0.4,0.2-0.8,0.4-1,0.4c-0.3,0.1-0.8,0.1-1.5,0.1s-1.2-0.1-1.7-0.3c-0.4-0.2-0.8-0.6-1.2-1.1l-3.1-4l-0.9,0.3v2.1h1.8v2.9h-7.4
			v-2.9H30V66.1H28.1z"/>
		<path fill="#754C24" d="M45.6,77.7c-0.9-0.8-1.3-1.9-1.3-3.3c0-1.5,0.6-2.6,1.6-3.5c1-0.9,2.5-1.3,4.2-1.3c1.1,0,2.1,0.2,2.9,0.6
			h4.2v3.1h-1.8c0.1,0.4,0.2,0.8,0.2,1.1c0,1.3-0.6,2.6-1.6,3.5c-1,0.9-2.5,1.3-4.2,1.3c-0.7,0-1.3-0.1-1.9-0.2
			c-0.1,0-0.2,0.1-0.3,0.2c-0.1,0.1-0.2,0.2-0.2,0.4c0,0.1,0.1,0.2,0.2,0.3c0.2,0.1,0.6,0.2,1.1,0.3l3.9,0.6
			c1.2,0.2,2.1,0.7,2.9,1.3c0.7,0.7,1.1,1.7,1.1,2.9s-0.7,2.2-1.9,3c-1.3,0.8-2.9,1.2-4.9,1.2s-3.5-0.3-4.5-1.1
			c-1-0.8-1.5-1.7-1.5-2.8c0-0.6,0.1-1.1,0.3-1.6s0.7-0.9,1.2-1c-1-0.4-1.5-1.2-1.5-2.3C44.1,79,44.6,78.2,45.6,77.7z M47.4,85.1
			c0,0.6,0.8,0.8,2.3,0.8c1,0,1.9-0.1,2.6-0.3c0.7-0.2,1-0.4,1-0.9c0-0.4-0.4-0.8-1.2-0.8l-3.2-0.3c-0.3,0.1-0.7,0.2-1,0.6
			C47.5,84.4,47.4,84.7,47.4,85.1z M48.3,73.1c-0.4,0.3-0.6,0.7-0.6,1.1c0,0.4,0.2,0.9,0.6,1.1c0.4,0.3,1,0.4,1.7,0.4
			c0.7,0,1.3-0.1,1.7-0.4c0.4-0.3,0.6-0.7,0.6-1.1c0-0.4-0.2-0.9-0.6-1.1c-0.3-0.2-1-0.4-1.7-0.4C49.3,72.7,48.7,72.9,48.3,73.1z"/>
	</g>
</g>
</svg>
